<svg xmlns="http://www.w3.org/2000/svg" xmlns:xlink="http://www.w3.org/1999/xlink" width="500" zoomAndPan="magnify" viewBox="0 0 375 374.999991" height="500" preserveAspectRatio="xMidYMid meet" version="1.0"><defs><g/><clipPath id="90df6d19f7"><path d="M 82.628906 82.628906 L 292.371094 82.628906 L 292.371094 292.371094 L 82.628906 292.371094 Z M 82.628906 82.628906 " clip-rule="nonzero"/></clipPath><clipPath id="672e2cd356"><path d="M 187.5 82.628906 C 129.582031 82.628906 82.628906 129.582031 82.628906 187.5 C 82.628906 245.417969 129.582031 292.371094 187.5 292.371094 C 245.417969 292.371094 292.371094 245.417969 292.371094 187.5 C 292.371094 129.582031 245.417969 82.628906 187.5 82.628906 " clip-rule="nonzero"/></clipPath><clipPath id="c2304140c9"><path d="M 131.273438 113 L 242 113 L 242 204.503906 L 131.273438 204.503906 Z M 131.273438 113 " clip-rule="nonzero"/></clipPath><clipPath id="ddc8dd20a8"><path d="M 179 97.253906 L 188 97.253906 L 188 103 L 179 103 Z M 179 97.253906 " clip-rule="nonzero"/></clipPath><clipPath id="63b86b03bf"><path d="M 237 128 L 243.773438 128 L 243.773438 134 L 237 134 Z M 237 128 " clip-rule="nonzero"/></clipPath></defs><rect x="-37.5" width="450" fill="#ffffff" y="-37.499999" height="449.999989" fill-opacity="1"/><rect x="-37.5" width="450" fill="#ffffff" y="-37.499999" height="449.999989" fill-opacity="1"/><rect x="-37.5" width="450" fill="#ffffff" y="-37.499999" height="449.999989" fill-opacity="1"/><g clip-path="url(#90df6d19f7)"><g clip-path="url(#672e2cd356)"><path fill="#000000" d="M 82.628906 82.628906 L 292.371094 82.628906 L 292.371094 292.371094 L 82.628906 292.371094 Z M 82.628906 82.628906 " fill-opacity="1" fill-rule="nonzero"/></g></g><g fill="#ffffff" fill-opacity="1"><g transform="translate(169.778938, 230.289005)"><g><path d="M 23.9375 -25.667969 C 24.148438 -25.671875 24.355469 -25.75 24.5625 -25.894531 C 25.050781 -26.113281 25.316406 -26.609375 25.730469 -26.898438 C 26.285156 -27.191406 26.625 -27.621094 27.109375 -27.980469 C 27.519531 -28.410156 27.644531 -28.972656 28.273438 -29.125 C 28.402344 -29.550781 28.535156 -29.902344 29.027344 -29.914062 C 29.164062 -29.917969 29.300781 -30.058594 29.300781 -30.199219 C 29.5 -30.695312 30.054688 -30.917969 30.183594 -31.339844 C 30.242188 -31.902344 30.585938 -32.257812 30.785156 -32.683594 C 30.917969 -32.964844 30.984375 -33.246094 30.765625 -33.523438 C 30.695312 -33.589844 30.761719 -33.804688 30.898438 -33.804688 C 30.972656 -33.738281 31.042969 -33.738281 31.113281 -33.742188 C 31.25 -33.742188 31.386719 -33.886719 31.457031 -34.027344 C 31.855469 -34.878906 32.1875 -35.726562 32.519531 -36.574219 C 32.988281 -37.492188 33.179688 -38.40625 33.507812 -39.324219 C 33.839844 -40.171875 33.820312 -41.082031 34.152344 -41.929688 C 34.480469 -42.847656 34.039062 -43.820312 34.441406 -44.667969 C 34.507812 -44.738281 34.4375 -44.878906 34.433594 -44.949219 C 34.21875 -45.222656 34.28125 -45.574219 34.203125 -45.851562 C 34.042969 -46.828125 33.949219 -47.878906 33.164062 -48.628906 C 33.089844 -48.699219 33.089844 -48.769531 33.015625 -48.90625 C 32.132812 -50.777344 29.242188 -51.695312 27.347656 -51.863281 C 27.136719 -51.859375 27 -51.855469 26.789062 -51.851562 C 25.667969 -51.824219 24.484375 -51.519531 23.367188 -51.496094 C 23.296875 -51.492188 23.296875 -51.421875 23.226562 -51.421875 C 20.09375 -50.582031 15.875 -48.316406 13.683594 -46.027344 C 13.480469 -45.742188 13.066406 -45.523438 12.789062 -45.238281 C 12.175781 -44.59375 11.414062 -44.085938 10.875 -43.304688 C 10.46875 -42.664062 9.917969 -42.164062 9.582031 -41.59375 C 9.246094 -40.886719 8.554688 -40.523438 8.148438 -39.882812 C 7.671875 -39.242188 7.195312 -38.671875 6.933594 -37.894531 C 6.734375 -37.332031 6.394531 -36.832031 6.054688 -36.40625 C 5.507812 -35.832031 5.167969 -35.265625 4.902344 -34.628906 C 4.03125 -32.859375 3.515625 -30.886719 2.929688 -28.984375 C 2.859375 -28.914062 2.863281 -28.773438 2.933594 -28.703125 C 2.9375 -28.632812 3.078125 -28.566406 3.152344 -28.429688 C 3.148438 -28.570312 3.144531 -28.707031 3.210938 -28.78125 C 3.210938 -28.851562 3.210938 -28.851562 3.28125 -28.921875 C 3.28125 -28.851562 3.351562 -28.785156 3.355469 -28.714844 C 3.359375 -28.574219 3.289062 -28.503906 3.152344 -28.429688 C 3.15625 -28.21875 3.160156 -28.007812 3.167969 -27.730469 C 3.167969 -27.589844 3.03125 -27.445312 2.894531 -27.371094 C 2.902344 -26.953125 2.84375 -26.53125 2.710938 -26.109375 C 2.316406 -24.980469 2.203125 -23.785156 1.949219 -22.589844 C 1.882812 -22.449219 1.886719 -22.238281 2.03125 -22.101562 C 2.308594 -22.25 2.160156 -22.59375 2.296875 -22.808594 C 2.433594 -22.953125 2.429688 -23.089844 2.425781 -23.300781 C 2.859375 -25.832031 4.3125 -29.644531 5.878906 -31.710938 C 5.945312 -31.851562 6.011719 -32.0625 6.148438 -32.207031 C 7.226562 -34.050781 8.375 -35.898438 9.597656 -37.746094 C 9.933594 -38.3125 10.410156 -38.882812 10.75 -39.449219 C 10.882812 -39.734375 11.085938 -39.949219 11.292969 -40.09375 C 12.050781 -40.738281 12.445312 -41.800781 13.347656 -42.308594 C 13.484375 -42.382812 13.550781 -42.59375 13.613281 -42.804688 C 13.957031 -43.234375 14.367188 -43.664062 14.847656 -44.023438 C 15.054688 -44.167969 15.261719 -44.3125 15.46875 -44.527344 C 16.019531 -44.960938 16.496094 -45.53125 17.117188 -45.894531 C 17.738281 -46.257812 18.21875 -46.6875 18.769531 -47.121094 C 19.183594 -47.480469 19.597656 -47.699219 20.015625 -47.917969 C 22.5 -49.445312 24.863281 -50.199219 27.804688 -50.261719 C 28.296875 -50.203125 29.773438 -49.957031 30.0625 -49.542969 C 30.851562 -48.578125 31.300781 -47.398438 31.535156 -46.214844 C 31.777344 -44.75 31.597656 -43.34375 31.28125 -41.9375 C 30.585938 -38.558594 29.519531 -36.15625 28.046875 -32.972656 C 27.578125 -31.980469 27.179688 -30.992188 26.355469 -30.273438 C 26.289062 -30.203125 26.292969 -30.0625 26.222656 -30.0625 C 25.609375 -29.277344 25.066406 -28.425781 24.382812 -27.710938 C 21.714844 -24.917969 18.046875 -22.949219 14.582031 -21.398438 C 14.300781 -21.324219 14.023438 -21.246094 13.886719 -21.035156 C 13.679688 -20.890625 13.257812 -21.019531 13.199219 -20.597656 C 13.335938 -20.601562 13.546875 -20.605469 13.6875 -20.609375 C 13.898438 -20.613281 14.105469 -20.621094 14.382812 -20.765625 C 14.800781 -20.984375 15.355469 -21.207031 15.839844 -21.429688 C 17.574219 -22.167969 19.308594 -22.976562 20.894531 -24.0625 C 21.238281 -24.347656 21.582031 -24.566406 21.996094 -24.785156 C 22.132812 -24.929688 22.339844 -25.074219 22.476562 -25.214844 C 23.367188 -26.144531 24.472656 -26.800781 25.222656 -27.726562 C 25.292969 -27.800781 25.429688 -27.804688 25.5 -27.875 C 25.496094 -28.015625 25.5625 -28.15625 25.773438 -28.160156 C 25.773438 -28.230469 25.839844 -28.300781 25.839844 -28.371094 C 25.984375 -28.164062 25.773438 -28.230469 25.703125 -28.160156 C 25.707031 -28.019531 25.640625 -27.878906 25.5 -27.875 C 25.503906 -27.664062 25.4375 -27.453125 25.300781 -27.308594 C 24.824219 -26.738281 24.273438 -26.304688 23.9375 -25.667969 Z M 3.679688 -29.839844 C 3.613281 -29.699219 3.546875 -29.488281 3.550781 -29.347656 C 3.480469 -29.417969 3.40625 -29.484375 3.40625 -29.554688 C 3.472656 -29.695312 3.542969 -29.769531 3.679688 -29.769531 C 3.675781 -29.980469 3.671875 -30.191406 3.667969 -30.332031 C 3.667969 -30.402344 3.738281 -30.402344 3.804688 -30.472656 C 3.808594 -30.402344 3.878906 -30.335938 3.878906 -30.265625 C 3.882812 -30.054688 3.816406 -29.914062 3.679688 -29.839844 Z M 28.375 -30.878906 C 27.882812 -31.007812 27.738281 -31.214844 27.867188 -31.566406 C 28.003906 -31.710938 28.140625 -31.925781 28.347656 -32 C 28.339844 -32.417969 28.539062 -32.84375 28.882812 -33.132812 C 28.882812 -33.199219 28.953125 -33.203125 29.023438 -33.203125 C 29.164062 -33.207031 29.234375 -33.140625 29.304688 -33.210938 C 29.441406 -33.351562 29.433594 -33.5625 29.574219 -33.636719 C 29.988281 -33.925781 29.90625 -34.414062 30.039062 -34.765625 C 30.175781 -34.980469 29.546875 -34.894531 29.816406 -35.253906 C 30.292969 -35.894531 30.414062 -36.804688 30.605469 -37.582031 C 30.933594 -38.566406 31.121094 -39.621094 31.449219 -40.609375 C 31.511719 -40.960938 31.570312 -41.453125 32.058594 -41.605469 C 32.273438 -41.328125 32.140625 -41.046875 32.078125 -40.765625 C 31.824219 -39.5 31.570312 -38.230469 31.109375 -37.03125 C 30.976562 -36.679688 31.257812 -36.613281 31.402344 -36.40625 C 31.265625 -36.265625 31.128906 -36.121094 30.921875 -35.90625 C 30.785156 -35.765625 30.722656 -35.550781 30.65625 -35.339844 C 30.664062 -34.921875 30.816406 -34.503906 30.257812 -34.351562 C 30.476562 -33.9375 30.0625 -33.648438 30.070312 -33.367188 C 30.078125 -32.949219 29.945312 -32.734375 29.738281 -32.449219 C 29.539062 -32.023438 29.332031 -31.878906 29.050781 -31.875 C 28.84375 -31.871094 28.699219 -31.9375 28.488281 -32 C 28.417969 -32 28.347656 -32 28.347656 -32 C 28.355469 -31.648438 28.367188 -31.230469 28.375 -30.878906 C 28.867188 -30.820312 28.867188 -30.820312 28.730469 -30.535156 C 28.664062 -30.394531 28.667969 -30.324219 28.597656 -30.253906 C 28.390625 -30.179688 28.320312 -30.175781 28.25 -30.175781 C 28.25 -30.175781 28.179688 -30.246094 28.175781 -30.3125 C 28.101562 -30.523438 28.378906 -30.667969 28.375 -30.878906 Z M 32.023438 -36.84375 C 32.023438 -36.910156 32.089844 -36.984375 32.160156 -37.054688 C 32.300781 -36.988281 32.234375 -36.707031 32.167969 -36.703125 C 32.097656 -36.703125 32.023438 -36.773438 32.023438 -36.84375 Z M 3.929688 -31.105469 C 3.929688 -31.175781 4 -31.25 4.066406 -31.320312 C 4.066406 -31.25 4.140625 -31.113281 4.070312 -31.109375 C 4.074219 -30.96875 4.003906 -30.96875 3.929688 -31.105469 Z M 28.785156 -31.308594 L 28.714844 -31.308594 L 28.785156 -31.378906 Z M 4.265625 -31.882812 L 4.335938 -31.886719 L 4.265625 -31.816406 Z M 26.179688 -28.800781 L 26.109375 -28.796875 L 26.109375 -28.867188 Z M 0.554688 -12.828125 C 0.542969 -13.386719 0.460938 -14.015625 0.652344 -14.859375 C 0.808594 -14.023438 0.820312 -13.460938 0.691406 -12.96875 C 0.695312 -12.898438 0.625 -12.828125 0.554688 -12.828125 C 0.558594 -12.6875 0.558594 -12.617188 0.5625 -12.546875 C 0.847656 -12.273438 0.847656 -12.273438 0.574219 -11.988281 C 0.617188 -10.027344 0.59375 -7.996094 0.636719 -5.964844 C 0.429688 -5.960938 0.425781 -6.101562 0.421875 -6.242188 C 0.382812 -7.992188 0.34375 -9.671875 0.308594 -11.421875 C 0.300781 -11.699219 0.296875 -11.910156 0.574219 -11.988281 C 0.570312 -12.195312 0.566406 -12.335938 0.5625 -12.546875 C 0.421875 -12.542969 0.28125 -12.539062 0.144531 -12.46875 C 0.0742188 -12.394531 0.0078125 -12.253906 0.0117188 -12.113281 C 0.0351562 -11.0625 0.0585938 -10.015625 0.078125 -9.035156 C 0.0859375 -8.753906 0.160156 -8.476562 0.0273438 -8.191406 C -0.105469 -7.839844 -0.234375 -7.488281 -0.015625 -7.070312 C -0.148438 -6.648438 -0.0703125 -6.300781 -0.128906 -5.878906 C -0.105469 -4.6875 0.207031 -3.226562 0.582031 -2.113281 C 0.65625 -1.976562 0.730469 -1.765625 0.804688 -1.628906 C 1.03125 -0.792969 1.261719 0.0429688 1.910156 0.796875 C 2.265625 1.210938 2.558594 1.765625 2.921875 2.316406 C 3.136719 2.589844 3.28125 2.796875 3.5 3.074219 C 3.574219 3.210938 3.710938 3.207031 3.78125 3.207031 C 3.921875 3.203125 3.992188 3.203125 4.128906 3.128906 C 4.476562 2.980469 4.753906 2.765625 4.953125 2.339844 C 5.085938 1.988281 5.289062 1.703125 5.492188 1.417969 C 5.902344 0.988281 6.105469 0.566406 6.230469 0 C 6.359375 -0.492188 6.558594 -0.984375 6.832031 -1.410156 C 7.101562 -1.839844 7.085938 -2.46875 7.214844 -2.960938 C 7.285156 -3.101562 7.351562 -3.242188 7.417969 -3.316406 C 7.761719 -3.601562 7.753906 -4.023438 7.882812 -4.445312 C 8.015625 -4.800781 7.9375 -5.21875 8.070312 -5.570312 C 8.128906 -5.992188 8.332031 -6.347656 8.464844 -6.699219 C 8.597656 -6.984375 8.664062 -7.195312 8.726562 -7.476562 C 9.105469 -9.304688 9.625 -11.136719 10.144531 -12.96875 C 10.273438 -13.460938 10.546875 -13.886719 10.464844 -14.375 C 10.457031 -14.65625 10.523438 -14.867188 10.660156 -15.011719 C 11 -15.4375 11.128906 -15.933594 11.191406 -16.351562 C 11.25 -16.773438 11.316406 -17.054688 11.449219 -17.410156 C 11.703125 -18.464844 12.03125 -19.523438 12.359375 -20.582031 C 12.355469 -20.71875 12.421875 -20.863281 12.417969 -21.003906 C 12.332031 -21.699219 12.667969 -22.40625 12.863281 -23.042969 C 13.117188 -24.238281 13.367188 -25.503906 13.621094 -26.699219 C 13.878906 -27.6875 13.996094 -28.738281 14.183594 -29.722656 C 14.375 -30.707031 14.558594 -31.761719 15.027344 -32.824219 C 15.226562 -33.316406 15.28125 -34.019531 15.339844 -34.582031 C 15.402344 -34.792969 15.332031 -34.929688 15.253906 -35.140625 C 15.105469 -35.625 14.746094 -35.96875 14.390625 -36.242188 C 14.175781 -36.445312 13.894531 -36.507812 13.613281 -36.503906 C 13.054688 -36.492188 12.503906 -36.128906 12.375 -35.496094 C 12.1875 -34.582031 12.140625 -33.601562 11.878906 -32.613281 C 11.6875 -31.839844 11.636719 -30.996094 11.445312 -30.152344 C 11.261719 -28.957031 11.148438 -27.765625 10.894531 -26.640625 C 10.832031 -26.289062 10.765625 -26.007812 10.703125 -25.726562 C 10.648438 -25.09375 10.519531 -24.460938 10.394531 -23.898438 C 9.941406 -22.207031 9.488281 -20.515625 9.035156 -18.894531 C 8.515625 -16.925781 8.070312 -15.023438 7.410156 -13.117188 C 6.691406 -10.933594 6.109375 -8.679688 5.597656 -6.425781 C 5.148438 -4.664062 4.484375 -2.96875 3.824219 -1.273438 C 3.757812 -1.132812 3.691406 -0.921875 3.625 -0.78125 C 3.351562 -0.496094 3.144531 -0.28125 2.933594 -0.273438 C 2.792969 -0.273438 2.582031 -0.40625 2.363281 -0.824219 C 2.214844 -1.238281 1.785156 -1.648438 2.125 -2.148438 C 2.046875 -2.496094 1.898438 -2.773438 1.894531 -3.054688 C 1.871094 -4.03125 1.363281 -4.863281 1.480469 -5.84375 C 1.117188 -6.46875 1.238281 -7.238281 1.15625 -7.9375 C 1.125 -9.199219 1.097656 -10.457031 1.140625 -11.71875 C 1.125 -12.347656 0.972656 -13.046875 1.308594 -13.683594 C 1.371094 -13.894531 1.296875 -14.171875 1.289062 -14.453125 C 1.285156 -14.734375 1.207031 -15.011719 1.339844 -15.292969 C 1.609375 -15.859375 1.453125 -16.488281 1.511719 -17.117188 C 1.503906 -17.398438 1.496094 -17.75 1.5625 -18.03125 C 1.824219 -18.804688 1.734375 -19.644531 1.929688 -20.417969 C 2.0625 -20.703125 2.054688 -21.050781 1.835938 -21.328125 C 1.628906 -21.183594 1.707031 -20.972656 1.710938 -20.765625 C 1.714844 -20.554688 1.648438 -20.414062 1.4375 -20.339844 C 1.378906 -19.847656 1.53125 -19.289062 1.261719 -18.792969 C 1.285156 -17.746094 0.820312 -16.753906 0.984375 -15.636719 C 0.988281 -15.496094 1.0625 -15.21875 0.785156 -15.070312 C 0.632812 -15.628906 0.832031 -16.195312 0.609375 -16.75 C 0.40625 -16.394531 0.484375 -16.117188 0.492188 -15.765625 C 0.425781 -15.554688 0.5 -15.347656 0.433594 -15.132812 C 0.101562 -14.425781 0.324219 -13.730469 0.269531 -13.03125 C 0.273438 -12.960938 0.484375 -12.894531 0.554688 -12.828125 Z M 8.117188 -9.773438 C 8.121094 -9.5625 8.050781 -9.492188 7.84375 -9.488281 C 7.925781 -8.929688 7.578125 -8.710938 7.234375 -8.421875 C 7.164062 -8.421875 7.027344 -8.347656 6.957031 -8.347656 C 6.816406 -8.34375 6.746094 -8.414062 6.746094 -8.414062 C 6.601562 -8.550781 6.738281 -8.691406 6.738281 -8.761719 C 6.875 -8.976562 6.726562 -9.320312 7.070312 -9.46875 C 7.066406 -9.679688 7.132812 -9.890625 7.125 -10.242188 C 7.414062 -9.898438 7.417969 -9.617188 7.070312 -9.46875 C 7.148438 -9.261719 7.21875 -9.191406 7.359375 -9.195312 C 7.429688 -9.199219 7.5 -9.199219 7.566406 -9.269531 C 7.636719 -9.34375 7.773438 -9.414062 7.910156 -9.488281 C 7.910156 -9.628906 7.976562 -9.699219 8.117188 -9.703125 C 8.1875 -9.773438 8.183594 -9.84375 8.253906 -9.917969 C 8.394531 -9.777344 8.1875 -9.773438 8.117188 -9.773438 Z M 5.644531 -1.316406 C 5.640625 -1.457031 5.636719 -1.59375 5.636719 -1.664062 C 5.703125 -1.738281 5.703125 -1.738281 5.773438 -1.808594 C 5.773438 -1.738281 5.84375 -1.671875 5.847656 -1.601562 C 5.777344 -1.527344 5.710938 -1.457031 5.640625 -1.386719 C 5.648438 -1.105469 5.652344 -0.894531 5.375 -0.820312 C 5.375 -0.679688 5.308594 -0.609375 5.242188 -0.394531 C 5.242188 -0.464844 5.101562 -0.535156 5.167969 -0.535156 C 5.238281 -0.675781 5.304688 -0.746094 5.375 -0.820312 C 5.371094 -0.960938 5.367188 -1.167969 5.359375 -1.378906 C 5.292969 -1.308594 5.152344 -1.234375 5.015625 -1.160156 C 4.949219 -1.089844 4.808594 -1.085938 4.664062 -1.152344 C 4.664062 -1.222656 4.589844 -1.363281 4.589844 -1.433594 C 4.65625 -1.644531 4.789062 -1.925781 4.855469 -2.136719 C 4.917969 -2.417969 5.128906 -2.425781 5.335938 -2.429688 C 5.265625 -2.566406 5.261719 -2.707031 5.1875 -2.914062 C 5.394531 -2.992188 5.535156 -2.992188 5.746094 -3 C 5.957031 -3.003906 6.164062 -3.007812 6.308594 -2.871094 C 6.175781 -2.519531 5.898438 -2.441406 5.546875 -2.433594 C 5.476562 -2.433594 5.40625 -2.429688 5.335938 -2.429688 C 5.203125 -2.144531 5.210938 -1.867188 5.355469 -1.589844 C 5.359375 -1.519531 5.359375 -1.449219 5.363281 -1.308594 C 5.433594 -1.3125 5.574219 -1.3125 5.644531 -1.316406 Z M 10.847656 -22.4375 C 10.839844 -22.648438 10.835938 -22.925781 10.898438 -23.277344 C 11.117188 -22.863281 11.191406 -22.585938 10.777344 -22.4375 C 10.785156 -22.015625 10.933594 -21.597656 10.664062 -21.171875 C 10.523438 -21.171875 10.523438 -21.171875 10.453125 -21.167969 C 10.585938 -21.589844 10.363281 -22.078125 10.847656 -22.4375 Z M 8.835938 -15.109375 C 8.835938 -15.179688 8.90625 -15.253906 8.902344 -15.324219 C 9.117188 -15.117188 8.90625 -15.183594 8.835938 -15.179688 C 8.851562 -14.550781 8.851562 -14.550781 9.210938 -14.140625 C 9.140625 -14.066406 9 -14.0625 8.859375 -14.0625 C 8.722656 -14.058594 8.582031 -14.054688 8.441406 -14.121094 C 8.5 -14.472656 8.636719 -14.757812 8.699219 -15.109375 C 8.699219 -15.109375 8.769531 -15.109375 8.835938 -15.109375 Z M 9.566406 -17.015625 C 9.492188 -17.085938 9.421875 -17.15625 9.351562 -17.152344 C 9.273438 -17.640625 9.191406 -18.058594 9.535156 -18.417969 C 9.738281 -18.703125 9.800781 -18.984375 9.867188 -19.265625 C 9.933594 -19.40625 10.140625 -19.480469 10.214844 -19.34375 C 10.214844 -19.273438 10.289062 -19.203125 10.289062 -19.132812 C 10.023438 -18.429688 9.6875 -17.789062 9.566406 -17.015625 C 9.636719 -17.019531 9.707031 -16.949219 9.777344 -16.953125 C 9.570312 -16.738281 9.636719 -16.949219 9.566406 -17.015625 Z M 7.226562 -5.621094 C 6.960938 -4.984375 6.40625 -4.761719 5.78125 -4.609375 C 5.707031 -4.75 5.707031 -4.75 5.703125 -4.816406 C 5.835938 -5.171875 6.328125 -5.183594 6.527344 -5.605469 C 6.597656 -5.679688 6.664062 -5.75 6.804688 -5.753906 C 6.945312 -5.753906 7.15625 -5.691406 7.226562 -5.621094 Z M 8.578125 -11.042969 C 8.511719 -10.832031 8.445312 -10.691406 8.378906 -10.550781 C 8.3125 -10.40625 8.175781 -10.265625 8.035156 -10.332031 C 7.820312 -10.398438 7.609375 -10.53125 7.464844 -10.667969 C 7.394531 -10.667969 7.394531 -10.808594 7.390625 -10.878906 C 7.390625 -10.949219 7.527344 -11.019531 7.527344 -11.019531 C 7.667969 -11.023438 7.738281 -11.023438 7.878906 -11.027344 C 8.089844 -11.03125 8.296875 -11.039062 8.578125 -11.042969 Z M 9.152344 -16.796875 C 9.367188 -16.453125 9.441406 -16.246094 9.515625 -16.035156 C 9.308594 -15.960938 9.101562 -15.886719 8.964844 -15.742188 C 8.746094 -16.160156 9.089844 -16.308594 9.152344 -16.796875 Z M 8.050781 -12.640625 C 8.054688 -12.574219 8.054688 -12.503906 8.054688 -12.503906 C 8.058594 -12.433594 7.988281 -12.359375 7.988281 -12.292969 C 7.917969 -12.359375 7.847656 -12.359375 7.847656 -12.429688 C 7.773438 -12.496094 7.84375 -12.496094 7.84375 -12.566406 C 7.84375 -12.636719 7.839844 -12.777344 7.980469 -12.78125 C 7.980469 -12.78125 8.050781 -12.710938 8.050781 -12.640625 Z M 8.386719 -13.351562 C 8.527344 -13.351562 8.667969 -13.285156 8.738281 -13.21875 C 8.8125 -13.148438 8.742188 -13.078125 8.675781 -13.007812 C 8.605469 -13.003906 8.535156 -13.003906 8.535156 -13.003906 C 8.394531 -13.070312 8.320312 -13.207031 8.386719 -13.351562 Z M 11.296875 -24.128906 C 11.230469 -24.058594 11.230469 -23.988281 11.234375 -23.917969 C 11.160156 -23.984375 11.089844 -24.054688 11.089844 -24.125 C 11.082031 -24.332031 11.152344 -24.40625 11.152344 -24.476562 C 11.222656 -24.40625 11.222656 -24.335938 11.296875 -24.269531 C 11.296875 -24.269531 11.296875 -24.199219 11.296875 -24.128906 Z M 4.972656 0.101562 C 5.046875 0.167969 5.117188 0.238281 5.117188 0.238281 C 5.046875 0.308594 5.050781 0.378906 4.980469 0.449219 C 4.976562 0.308594 4.976562 0.238281 4.972656 0.101562 Z M 5.457031 -3.34375 C 5.457031 -3.410156 5.523438 -3.484375 5.59375 -3.484375 C 5.664062 -3.488281 5.667969 -3.417969 5.667969 -3.277344 C 5.597656 -3.273438 5.527344 -3.34375 5.457031 -3.34375 Z M 6.515625 -6.097656 C 6.449219 -6.023438 6.378906 -6.023438 6.308594 -5.953125 C 6.308594 -5.953125 6.238281 -6.089844 6.167969 -6.089844 C 6.308594 -6.089844 6.375 -6.09375 6.515625 -6.097656 Z M 7.121094 -7.230469 C 7.191406 -7.230469 7.195312 -7.160156 7.261719 -7.164062 C 7.195312 -7.09375 7.125 -7.089844 7.054688 -7.089844 C 7.054688 -7.089844 6.984375 -7.085938 6.984375 -7.15625 C 6.984375 -7.15625 7.050781 -7.230469 7.121094 -7.230469 Z M 10.40625 -20.1875 C 10.476562 -20.117188 10.546875 -20.050781 10.546875 -20.050781 C 10.550781 -19.980469 10.480469 -19.910156 10.414062 -19.835938 C 10.410156 -19.90625 10.34375 -19.90625 10.339844 -19.976562 C 10.410156 -20.046875 10.40625 -20.117188 10.40625 -20.1875 Z M 7.726562 -11.515625 L 7.730469 -11.445312 L 7.65625 -11.511719 Z M 3.855469 0.125 L 3.992188 0.121094 Z M 6.433594 -6.65625 L 6.503906 -6.65625 L 6.4375 -6.585938 Z M 6.492188 -7.144531 L 6.421875 -7.144531 L 6.421875 -7.214844 Z M 10.785156 -18.796875 L 10.714844 -18.792969 L 10.785156 -18.863281 Z M 23.9375 -25.667969 C 23.867188 -25.667969 23.796875 -25.664062 23.726562 -25.664062 C 23.589844 -25.660156 23.519531 -25.660156 23.453125 -25.519531 C 23.453125 -25.449219 23.453125 -25.378906 23.457031 -25.308594 C 23.457031 -25.238281 23.597656 -25.242188 23.667969 -25.3125 C 23.804688 -25.386719 23.871094 -25.527344 23.9375 -25.667969 Z M 2.894531 -27.371094 C 2.890625 -27.582031 2.953125 -27.863281 2.738281 -28.070312 C 2.679688 -27.648438 2.679688 -27.648438 2.894531 -27.371094 Z M 2.625 -26.808594 C 2.554688 -26.875 2.554688 -26.945312 2.480469 -27.011719 C 2.484375 -26.875 2.488281 -26.804688 2.488281 -26.664062 C 2.558594 -26.734375 2.558594 -26.734375 2.625 -26.808594 Z M 1.171875 -19.773438 C 1.101562 -19.839844 1.097656 -19.910156 1.027344 -19.980469 C 1.03125 -19.839844 1.03125 -19.769531 1.035156 -19.628906 C 1.101562 -19.699219 1.101562 -19.769531 1.171875 -19.773438 Z M 22.835938 -24.875 C 22.835938 -24.804688 22.554688 -24.867188 22.769531 -24.664062 C 22.769531 -24.734375 22.835938 -24.804688 22.835938 -24.875 Z M 22.835938 -24.875 C 22.902344 -24.945312 23.117188 -24.878906 22.972656 -25.015625 C 22.902344 -25.015625 22.902344 -24.945312 22.835938 -24.875 Z M 1.4375 -20.339844 C 1.367188 -20.40625 1.433594 -20.617188 1.226562 -20.472656 C 1.296875 -20.40625 1.367188 -20.40625 1.4375 -20.339844 Z M 1.4375 -20.339844 "/></g></g></g><g clip-path="url(#c2304140c9)"><path fill="#ffffff" d="M 183.277344 113.574219 L 183.1875 113.574219 C 182.492188 113.507812 181.886719 114.457031 181.378906 116.421875 C 177.335938 134.152344 172.421875 153.417969 166.640625 174.222656 L 147.476562 157.585938 C 141.898438 152.9375 138.476562 150.273438 137.203125 149.59375 C 135.070312 148.238281 133.523438 147.984375 132.558594 148.832031 C 131.710938 149.519531 131.644531 150.941406 132.359375 153.097656 C 133.800781 157.203125 137.996094 165.800781 144.949219 178.894531 C 145.925781 181.148438 150.582031 188.953125 158.921875 202.304688 C 158.375 199.832031 151.460938 185.777344 138.179688 160.144531 C 136.402344 156.460938 135.035156 153.351562 134.082031 150.820312 C 135.292969 151.121094 138.253906 153.222656 142.964844 157.125 L 165.660156 176.628906 C 166.222656 177.109375 166.863281 177.230469 167.59375 176.988281 C 171.011719 169.78125 176.503906 149.527344 184.066406 116.222656 C 186.210938 119.457031 192.621094 137.179688 203.296875 169.382812 C 204.441406 172.453125 205.355469 174.183594 206.035156 174.578125 C 206.585938 175.039062 208.425781 173.835938 211.554688 170.972656 C 224.316406 159.800781 233.515625 151.324219 239.15625 145.535156 C 237.523438 149.863281 235.6875 154.230469 233.644531 158.636719 C 233.839844 158.433594 229.742188 166.394531 221.351562 182.519531 C 218.769531 187.609375 216.574219 192.113281 214.765625 196.027344 C 213.65625 198.328125 212.917969 201.152344 212.550781 204.507812 C 213.359375 202.191406 214.324219 199.925781 215.441406 197.707031 C 222.507812 185.535156 229.316406 172.910156 235.867188 159.828125 C 237.714844 155.835938 239.445312 151.773438 241.066406 147.640625 C 241.878906 145.605469 242.144531 144.339844 241.867188 143.851562 C 240.9375 141.890625 239.265625 141.96875 236.859375 144.089844 C 230.738281 150.574219 220.515625 159.90625 206.199219 172.082031 C 200.257812 152.332031 195.027344 136.582031 190.503906 124.839844 C 187.507812 116.804688 185.097656 113.050781 183.277344 113.574219 " fill-opacity="1" fill-rule="nonzero"/></g><path fill="#ffffff" d="M 135.992188 134.761719 L 136.015625 134.761719 C 136.9375 134.78125 137.574219 134.941406 137.9375 135.25 C 138.101562 135.355469 138.207031 135.539062 138.257812 135.804688 C 138.289062 136.050781 138.269531 136.246094 138.203125 136.402344 C 138.089844 136.65625 137.953125 136.84375 137.792969 136.960938 C 137.433594 137.273438 137.078125 137.527344 136.726562 137.726562 C 136.363281 137.9375 135.976562 138.117188 135.566406 138.265625 C 135.101562 138.433594 134.765625 138.515625 134.558594 138.507812 C 134.335938 138.507812 134.117188 138.453125 133.898438 138.34375 C 133.757812 138.257812 133.589844 138.078125 133.398438 137.804688 C 133.25 137.597656 133.078125 137.277344 132.886719 136.839844 C 132.816406 136.605469 132.824219 136.367188 132.910156 136.125 C 133.070312 135.707031 133.417969 135.382812 133.953125 135.15625 C 134.578125 134.886719 135.257812 134.757812 135.992188 134.761719 M 136.746094 133.640625 L 136.714844 133.640625 C 135.863281 133.636719 135.015625 133.832031 134.167969 134.230469 C 133.378906 134.640625 132.898438 135.117188 132.726562 135.660156 C 132.667969 135.832031 132.640625 136 132.644531 136.164062 C 132.648438 136.363281 132.691406 136.546875 132.773438 136.714844 C 132.738281 136.707031 132.714844 136.683594 132.710938 136.644531 L 132.703125 136.683594 C 132.6875 136.839844 132.699219 137.039062 132.730469 137.273438 C 132.785156 137.683594 132.90625 138.0625 133.097656 138.410156 C 133.441406 139.046875 134.035156 139.382812 134.882812 139.414062 C 135.953125 139.351562 137.003906 139.03125 138.042969 138.453125 C 138.949219 137.933594 139.503906 137.335938 139.707031 136.660156 C 139.914062 135.878906 139.722656 135.148438 139.128906 134.46875 C 138.59375 133.925781 137.796875 133.648438 136.746094 133.640625 " fill-opacity="1" fill-rule="nonzero"/><g clip-path="url(#ddc8dd20a8)"><path fill="#ffffff" d="M 182.40625 98.167969 L 182.4375 98.167969 C 183.191406 98.1875 183.945312 98.320312 184.703125 98.574219 C 184.988281 98.671875 185.246094 98.800781 185.480469 98.964844 C 185.652344 99.105469 185.746094 99.234375 185.761719 99.351562 C 185.8125 99.535156 185.75 99.785156 185.574219 100.101562 C 185.40625 100.367188 185.179688 100.617188 184.886719 100.851562 C 184.359375 101.257812 183.773438 101.457031 183.128906 101.453125 C 182.796875 101.449219 182.527344 101.410156 182.320312 101.324219 C 182.050781 101.230469 181.796875 101.0625 181.550781 100.824219 C 181.355469 100.628906 181.175781 100.375 181.003906 100.0625 C 180.925781 99.941406 180.726562 99.480469 180.40625 98.679688 C 180.75 98.339844 181.417969 98.171875 182.40625 98.167969 M 183.464844 97.257812 L 183.414062 97.257812 C 182.707031 97.253906 182.054688 97.355469 181.457031 97.5625 C 180.894531 97.765625 180.503906 98.019531 180.28125 98.335938 C 180.214844 98.085938 180.140625 97.933594 180.058594 97.871094 L 180.027344 97.699219 C 179.960938 98.011719 179.941406 98.410156 179.96875 98.894531 C 179.90625 99.042969 179.875 99.277344 179.878906 99.597656 L 179.886719 99.660156 C 179.886719 99.464844 179.925781 99.308594 179.996094 99.183594 C 180.140625 100.457031 180.570312 101.394531 181.289062 102 C 181.652344 102.292969 182.011719 102.488281 182.367188 102.585938 C 182.742188 102.707031 183.132812 102.765625 183.535156 102.765625 C 184.539062 102.753906 185.4375 102.417969 186.230469 101.761719 C 186.902344 101.128906 187.234375 100.394531 187.226562 99.566406 C 187.125 98.070312 185.871094 97.300781 183.464844 97.257812 " fill-opacity="1" fill-rule="nonzero"/></g><g clip-path="url(#63b86b03bf)"><path fill="#ffffff" d="M 238.421875 128.515625 L 238.390625 128.570312 C 237.976562 129.558594 237.789062 130.492188 237.824219 131.367188 C 237.886719 132.046875 238.207031 132.582031 238.777344 132.96875 C 239.496094 133.421875 240.3125 133.542969 241.238281 133.324219 C 241.683594 133.199219 242.113281 132.984375 242.515625 132.675781 C 242.886719 132.390625 243.15625 132.082031 243.335938 131.746094 C 243.613281 131.234375 243.617188 130.738281 243.34375 130.25 C 243.113281 129.84375 242.695312 129.640625 242.089844 129.644531 C 241.84375 129.644531 241.519531 129.726562 241.117188 129.890625 C 240.90625 129.964844 240.335938 130.285156 239.40625 130.847656 C 239.804688 130.652344 240.3125 130.484375 240.925781 130.347656 C 241.511719 130.242188 241.929688 130.226562 242.175781 130.300781 C 242.460938 130.371094 242.617188 130.503906 242.648438 130.703125 C 242.644531 130.988281 242.484375 131.253906 242.171875 131.5 C 241.804688 131.8125 241.234375 132.039062 240.460938 132.183594 C 239.957031 132.257812 239.527344 132.1875 239.164062 131.972656 C 238.886719 131.796875 238.703125 131.519531 238.617188 131.136719 C 238.574219 130.933594 238.546875 130.679688 238.53125 130.378906 C 238.519531 130.207031 238.515625 129.847656 238.519531 129.292969 L 238.496094 128.785156 C 238.496094 128.722656 238.472656 128.664062 238.421875 128.605469 L 238.421875 128.515625 " fill-opacity="1" fill-rule="nonzero"/></g><g fill="#ffffff" fill-opacity="1"><g transform="translate(114.145183, 230.253348)"><g><path d="M 10.828125 -1.78125 C 11.160156 -1.320312 11.359375 -0.847656 11.421875 -0.359375 C 11.484375 0.128906 11.410156 0.59375 11.203125 1.03125 C 11.003906 1.476562 10.679688 1.867188 10.234375 2.203125 C 9.773438 2.535156 9.304688 2.726562 8.828125 2.78125 C 8.359375 2.832031 7.894531 2.75 7.4375 2.53125 C 6.988281 2.3125 6.59375 1.96875 6.25 1.5 L 4.796875 -0.46875 C 4.773438 -0.5 4.75 -0.503906 4.71875 -0.484375 L 1.578125 1.8125 C 1.535156 1.851562 1.484375 1.867188 1.421875 1.859375 C 1.367188 1.847656 1.328125 1.816406 1.296875 1.765625 L 0.75 1.015625 C 0.707031 0.960938 0.691406 0.910156 0.703125 0.859375 C 0.710938 0.816406 0.738281 0.773438 0.78125 0.734375 L 8.34375 -4.8125 C 8.394531 -4.84375 8.445312 -4.851562 8.5 -4.84375 C 8.550781 -4.84375 8.597656 -4.816406 8.640625 -4.765625 Z M 7.0625 0.75 C 7.363281 1.15625 7.726562 1.394531 8.15625 1.46875 C 8.582031 1.539062 9 1.429688 9.40625 1.140625 C 9.820312 0.835938 10.0625 0.460938 10.125 0.015625 C 10.195312 -0.421875 10.082031 -0.84375 9.78125 -1.25 L 8.40625 -3.125 C 8.382812 -3.15625 8.351562 -3.15625 8.3125 -3.125 L 5.703125 -1.203125 C 5.671875 -1.179688 5.664062 -1.15625 5.6875 -1.125 Z M 7.0625 0.75 "/></g></g></g><g fill="#ffffff" fill-opacity="1"><g transform="translate(124.100622, 242.664421)"><g><path d="M 4.921875 4.640625 C 4.835938 4.554688 4.816406 4.460938 4.859375 4.359375 L 6.296875 0.03125 C 6.304688 0 6.296875 -0.03125 6.265625 -0.0625 L 4.84375 -1.40625 C 4.8125 -1.4375 4.773438 -1.4375 4.734375 -1.40625 L 1.953125 1.5625 C 1.910156 1.601562 1.863281 1.625 1.8125 1.625 C 1.757812 1.625 1.707031 1.601562 1.65625 1.5625 L 0.984375 0.9375 C 0.929688 0.882812 0.90625 0.832031 0.90625 0.78125 C 0.90625 0.726562 0.925781 0.679688 0.96875 0.640625 L 7.390625 -6.1875 C 7.429688 -6.238281 7.476562 -6.265625 7.53125 -6.265625 C 7.582031 -6.265625 7.632812 -6.238281 7.6875 -6.1875 L 10.359375 -3.671875 C 10.773438 -3.285156 11.054688 -2.863281 11.203125 -2.40625 C 11.347656 -1.945312 11.363281 -1.484375 11.25 -1.015625 C 11.132812 -0.554688 10.890625 -0.125 10.515625 0.28125 C 10.078125 0.738281 9.578125 1.015625 9.015625 1.109375 C 8.460938 1.210938 7.914062 1.113281 7.375 0.8125 C 7.332031 0.8125 7.304688 0.820312 7.296875 0.84375 L 5.90625 5.203125 L 5.84375 5.296875 C 5.78125 5.367188 5.707031 5.367188 5.625 5.296875 Z M 7.765625 -4.53125 C 7.734375 -4.5625 7.703125 -4.554688 7.671875 -4.515625 L 5.546875 -2.265625 C 5.515625 -2.234375 5.515625 -2.203125 5.546875 -2.171875 L 7.234375 -0.578125 C 7.585938 -0.253906 7.972656 -0.0976562 8.390625 -0.109375 C 8.816406 -0.117188 9.191406 -0.296875 9.515625 -0.640625 C 9.859375 -0.992188 10.019531 -1.378906 10 -1.796875 C 9.988281 -2.222656 9.804688 -2.601562 9.453125 -2.9375 Z M 7.765625 -4.53125 "/></g></g></g><g fill="#ffffff" fill-opacity="1"><g transform="translate(136.290908, 253.083115)"><g><path d="M 1.125 0.765625 C 1.0625 0.722656 1.023438 0.675781 1.015625 0.625 C 1.003906 0.570312 1.015625 0.519531 1.046875 0.46875 L 6.34375 -7.25 C 6.375 -7.300781 6.414062 -7.332031 6.46875 -7.34375 C 6.519531 -7.351562 6.578125 -7.335938 6.640625 -7.296875 L 7.390625 -6.78125 C 7.441406 -6.738281 7.472656 -6.691406 7.484375 -6.640625 C 7.492188 -6.585938 7.484375 -6.535156 7.453125 -6.484375 L 2.15625 1.234375 C 2.125 1.285156 2.082031 1.316406 2.03125 1.328125 C 1.976562 1.335938 1.925781 1.320312 1.875 1.28125 Z M 1.125 0.765625 "/></g></g></g><g fill="#ffffff" fill-opacity="1"><g transform="translate(145.698746, 259.071841)"><g><path d="M 1.234375 0.578125 C 1.160156 0.546875 1.113281 0.503906 1.09375 0.453125 C 1.082031 0.410156 1.09375 0.359375 1.125 0.296875 L 5.109375 -8.15625 C 5.140625 -8.21875 5.175781 -8.253906 5.21875 -8.265625 C 5.269531 -8.285156 5.332031 -8.28125 5.40625 -8.25 L 6.203125 -7.875 C 6.296875 -7.820312 6.351562 -7.742188 6.375 -7.640625 L 7.28125 0.4375 C 7.28125 0.46875 7.285156 0.484375 7.296875 0.484375 C 7.316406 0.484375 7.335938 0.46875 7.359375 0.4375 L 10.265625 -5.71875 C 10.296875 -5.78125 10.335938 -5.816406 10.390625 -5.828125 C 10.441406 -5.847656 10.5 -5.84375 10.5625 -5.8125 L 11.390625 -5.421875 C 11.453125 -5.390625 11.488281 -5.347656 11.5 -5.296875 C 11.519531 -5.253906 11.515625 -5.203125 11.484375 -5.140625 L 7.5 3.3125 C 7.46875 3.375 7.425781 3.410156 7.375 3.421875 C 7.332031 3.441406 7.28125 3.4375 7.21875 3.40625 L 6.40625 3.015625 C 6.300781 2.972656 6.242188 2.898438 6.234375 2.796875 L 5.328125 -5.328125 C 5.335938 -5.347656 5.328125 -5.359375 5.296875 -5.359375 C 5.273438 -5.367188 5.257812 -5.363281 5.25 -5.34375 L 2.34375 0.875 C 2.3125 0.9375 2.269531 0.972656 2.21875 0.984375 C 2.164062 1.003906 2.113281 1 2.0625 0.96875 Z M 1.234375 0.578125 "/></g></g></g><g fill="#ffffff" fill-opacity="1"><g transform="translate(161.369192, 265.624058)"><g><path d="M 4.109375 1.1875 C 3.460938 1.019531 2.921875 0.742188 2.484375 0.359375 C 2.054688 -0.0234375 1.765625 -0.488281 1.609375 -1.03125 C 1.453125 -1.582031 1.453125 -2.160156 1.609375 -2.765625 L 2.515625 -6.265625 C 2.671875 -6.878906 2.945312 -7.378906 3.34375 -7.765625 C 3.738281 -8.160156 4.21875 -8.421875 4.78125 -8.546875 C 5.351562 -8.679688 5.960938 -8.664062 6.609375 -8.5 C 7.253906 -8.332031 7.796875 -8.0625 8.234375 -7.6875 C 8.671875 -7.3125 8.960938 -6.859375 9.109375 -6.328125 C 9.265625 -5.804688 9.269531 -5.25 9.125 -4.65625 C 9.09375 -4.570312 9.015625 -4.539062 8.890625 -4.5625 L 7.984375 -4.734375 L 7.921875 -4.75 C 7.878906 -4.757812 7.84375 -4.773438 7.8125 -4.796875 C 7.789062 -4.828125 7.78125 -4.851562 7.78125 -4.875 L 7.8125 -4.9375 C 7.957031 -5.519531 7.894531 -6.03125 7.625 -6.46875 C 7.351562 -6.914062 6.914062 -7.21875 6.3125 -7.375 C 5.707031 -7.53125 5.179688 -7.476562 4.734375 -7.21875 C 4.285156 -6.96875 3.988281 -6.550781 3.84375 -5.96875 L 2.90625 -2.390625 C 2.757812 -1.816406 2.820312 -1.304688 3.09375 -0.859375 C 3.363281 -0.410156 3.800781 -0.109375 4.40625 0.046875 C 5.007812 0.203125 5.535156 0.148438 5.984375 -0.109375 C 6.429688 -0.367188 6.726562 -0.785156 6.875 -1.359375 C 6.894531 -1.410156 6.925781 -1.441406 6.96875 -1.453125 C 7.019531 -1.472656 7.078125 -1.472656 7.140625 -1.453125 L 8.015625 -1.171875 C 8.128906 -1.109375 8.1875 -1.066406 8.1875 -1.046875 L 8.171875 -0.96875 C 8.015625 -0.375 7.738281 0.109375 7.34375 0.484375 C 6.957031 0.867188 6.484375 1.125 5.921875 1.25 C 5.359375 1.375 4.753906 1.351562 4.109375 1.1875 Z M 4.109375 1.1875 "/></g></g></g><g fill="#ffffff" fill-opacity="1"><g transform="translate(176.986144, 268.861516)"><g><path d="M 1.359375 0.140625 C 1.285156 0.128906 1.234375 0.101562 1.203125 0.0625 C 1.171875 0.0195312 1.15625 -0.03125 1.15625 -0.09375 L 2.078125 -9.40625 C 2.085938 -9.46875 2.109375 -9.515625 2.140625 -9.546875 C 2.179688 -9.578125 2.238281 -9.585938 2.3125 -9.578125 L 3.21875 -9.5 C 3.28125 -9.488281 3.328125 -9.460938 3.359375 -9.421875 C 3.398438 -9.378906 3.414062 -9.328125 3.40625 -9.265625 L 2.484375 0.046875 C 2.484375 0.109375 2.460938 0.15625 2.421875 0.1875 C 2.378906 0.21875 2.328125 0.226562 2.265625 0.21875 Z M 1.359375 0.140625 "/></g></g></g><g fill="#ffffff" fill-opacity="1"><g transform="translate(188.077497, 269.553655)"><g><path d="M 3.609375 -0.21875 C 3.546875 -0.207031 3.492188 -0.21875 3.453125 -0.25 C 3.421875 -0.289062 3.398438 -0.34375 3.390625 -0.40625 L 3.1875 -4.265625 C 3.1875 -4.285156 3.175781 -4.3125 3.15625 -4.34375 L 0.015625 -9.53125 C -0.00390625 -9.582031 -0.015625 -9.613281 -0.015625 -9.625 C -0.0234375 -9.726562 0.03125 -9.78125 0.15625 -9.78125 L 1.140625 -9.84375 C 1.265625 -9.84375 1.351562 -9.796875 1.40625 -9.703125 L 3.734375 -5.8125 C 3.765625 -5.769531 3.789062 -5.769531 3.8125 -5.8125 L 5.6875 -9.9375 C 5.738281 -10.039062 5.816406 -10.09375 5.921875 -10.09375 L 6.9375 -10.15625 C 7.039062 -10.164062 7.097656 -10.125 7.109375 -10.03125 L 7.09375 -9.90625 L 4.546875 -4.421875 C 4.535156 -4.378906 4.53125 -4.347656 4.53125 -4.328125 L 4.734375 -0.46875 C 4.742188 -0.40625 4.726562 -0.351562 4.6875 -0.3125 C 4.644531 -0.28125 4.59375 -0.265625 4.53125 -0.265625 Z M 3.609375 -0.21875 "/></g></g></g><g fill="#ffffff" fill-opacity="1"><g transform="translate(203.807672, 268.025893)"><g><path d="M 6.921875 -1.671875 C 6.804688 -1.648438 6.71875 -1.691406 6.65625 -1.796875 L 5.8125 -3.203125 C 5.789062 -3.222656 5.765625 -3.226562 5.734375 -3.21875 L 1.953125 -2.3125 C 1.929688 -2.300781 1.914062 -2.28125 1.90625 -2.25 L 1.796875 -0.625 C 1.785156 -0.5 1.71875 -0.421875 1.59375 -0.390625 L 0.640625 -0.15625 C 0.484375 -0.113281 0.40625 -0.175781 0.40625 -0.34375 L 1.140625 -10.15625 C 1.160156 -10.269531 1.222656 -10.335938 1.328125 -10.359375 L 2.578125 -10.671875 C 2.703125 -10.691406 2.796875 -10.65625 2.859375 -10.5625 L 8 -2.1875 C 8.019531 -2.164062 8.035156 -2.140625 8.046875 -2.109375 C 8.066406 -2.003906 8.019531 -1.941406 7.90625 -1.921875 Z M 1.96875 -3.5 C 1.96875 -3.4375 1.992188 -3.410156 2.046875 -3.421875 L 5.140625 -4.171875 C 5.191406 -4.179688 5.207031 -4.21875 5.1875 -4.28125 L 2.375 -8.953125 C 2.363281 -8.972656 2.347656 -8.984375 2.328125 -8.984375 C 2.316406 -8.984375 2.304688 -8.960938 2.296875 -8.921875 Z M 1.96875 -3.5 "/></g></g></g><g fill="#ffffff" fill-opacity="1"><g transform="translate(219.429842, 263.42988)"><g><path d="M 1.734375 -0.71875 C 1.460938 -0.601562 1.203125 -0.59375 0.953125 -0.6875 C 0.703125 -0.789062 0.523438 -0.972656 0.421875 -1.234375 C 0.316406 -1.472656 0.328125 -1.71875 0.453125 -1.96875 C 0.578125 -2.226562 0.757812 -2.40625 1 -2.5 C 1.238281 -2.601562 1.488281 -2.609375 1.75 -2.515625 C 2.007812 -2.421875 2.191406 -2.253906 2.296875 -2.015625 C 2.398438 -1.765625 2.394531 -1.515625 2.28125 -1.265625 C 2.175781 -1.015625 1.992188 -0.832031 1.734375 -0.71875 Z M 1.734375 -0.71875 "/></g></g></g><g fill="#ffffff" fill-opacity="1"><g transform="translate(229.682263, 258.722394)"><g><path d="M 3.71875 -2.125 C 3.144531 -1.78125 2.570312 -1.585938 2 -1.546875 C 1.425781 -1.503906 0.882812 -1.613281 0.375 -1.875 C -0.125 -2.144531 -0.535156 -2.546875 -0.859375 -3.078125 L -2.75 -6.171875 C -3.082031 -6.703125 -3.25 -7.242188 -3.25 -7.796875 C -3.257812 -8.359375 -3.113281 -8.890625 -2.8125 -9.390625 C -2.507812 -9.890625 -2.070312 -10.3125 -1.5 -10.65625 C -0.9375 -11.007812 -0.367188 -11.207031 0.203125 -11.25 C 0.773438 -11.300781 1.300781 -11.203125 1.78125 -10.953125 C 2.269531 -10.710938 2.675781 -10.332031 3 -9.8125 C 3.039062 -9.726562 3.003906 -9.640625 2.890625 -9.546875 L 2.140625 -9.03125 L 2.09375 -9 C 2.050781 -8.976562 2.007812 -8.960938 1.96875 -8.953125 C 1.9375 -8.953125 1.914062 -8.960938 1.90625 -8.984375 L 1.875 -9.046875 C 1.5625 -9.554688 1.148438 -9.867188 0.640625 -9.984375 C 0.140625 -10.109375 -0.375 -10.003906 -0.90625 -9.671875 C -1.445312 -9.347656 -1.78125 -8.929688 -1.90625 -8.421875 C -2.03125 -7.910156 -1.9375 -7.398438 -1.625 -6.890625 L 0.3125 -3.734375 C 0.613281 -3.234375 1.019531 -2.925781 1.53125 -2.8125 C 2.039062 -2.695312 2.566406 -2.800781 3.109375 -3.125 C 3.640625 -3.457031 3.960938 -3.875 4.078125 -4.375 C 4.203125 -4.882812 4.113281 -5.390625 3.8125 -5.890625 C 3.78125 -5.941406 3.773438 -5.988281 3.796875 -6.03125 C 3.816406 -6.070312 3.851562 -6.109375 3.90625 -6.140625 L 4.71875 -6.5625 C 4.851562 -6.625 4.929688 -6.644531 4.953125 -6.625 L 4.984375 -6.5625 C 5.304688 -6.039062 5.46875 -5.503906 5.46875 -4.953125 C 5.476562 -4.398438 5.328125 -3.878906 5.015625 -3.390625 C 4.710938 -2.898438 4.28125 -2.476562 3.71875 -2.125 Z M 3.71875 -2.125 "/></g></g></g><g fill="#ffffff" fill-opacity="1"><g transform="translate(243.043973, 249.711606)"><g><path d="M 3.296875 -2.8125 C 2.785156 -2.351562 2.242188 -2.050781 1.671875 -1.90625 C 1.097656 -1.769531 0.535156 -1.789062 -0.015625 -1.96875 C -0.566406 -2.15625 -1.0625 -2.492188 -1.5 -2.984375 L -3.734375 -5.453125 C -4.171875 -5.941406 -4.453125 -6.46875 -4.578125 -7.03125 C -4.703125 -7.601562 -4.664062 -8.164062 -4.46875 -8.71875 C -4.269531 -9.269531 -3.914062 -9.773438 -3.40625 -10.234375 C -2.90625 -10.691406 -2.363281 -10.992188 -1.78125 -11.140625 C -1.207031 -11.285156 -0.644531 -11.265625 -0.09375 -11.078125 C 0.445312 -10.898438 0.9375 -10.566406 1.375 -10.078125 L 3.609375 -7.609375 C 4.046875 -7.117188 4.328125 -6.585938 4.453125 -6.015625 C 4.585938 -5.453125 4.550781 -4.890625 4.34375 -4.328125 C 4.144531 -3.773438 3.796875 -3.269531 3.296875 -2.8125 Z M 2.53125 -3.671875 C 3 -4.097656 3.242188 -4.585938 3.265625 -5.140625 C 3.285156 -5.691406 3.082031 -6.207031 2.65625 -6.6875 L 0.375 -9.203125 C -0.0507812 -9.679688 -0.539062 -9.9375 -1.09375 -9.96875 C -1.644531 -10 -2.15625 -9.800781 -2.625 -9.375 C -3.101562 -8.945312 -3.351562 -8.457031 -3.375 -7.90625 C -3.394531 -7.351562 -3.191406 -6.835938 -2.765625 -6.359375 L -0.484375 -3.84375 C -0.0546875 -3.363281 0.429688 -3.109375 0.984375 -3.078125 C 1.535156 -3.046875 2.050781 -3.242188 2.53125 -3.671875 Z M 2.53125 -3.671875 "/></g></g></g><g fill="#ffffff" fill-opacity="1"><g transform="translate(254.722655, 238.23696)"><g><path d="M 0.828125 -1.09375 C 0.785156 -1.039062 0.734375 -1.007812 0.671875 -1 C 0.617188 -0.988281 0.570312 -1.003906 0.53125 -1.046875 L -6.96875 -6.65625 C -7.019531 -6.6875 -7.046875 -6.726562 -7.046875 -6.78125 C -7.046875 -6.84375 -7.023438 -6.898438 -6.984375 -6.953125 L -6.4375 -7.703125 C -6.363281 -7.785156 -6.273438 -7.816406 -6.171875 -7.796875 L -1.78125 -7.453125 C -1.71875 -7.429688 -1.703125 -7.453125 -1.734375 -7.515625 L -3.296875 -11.640625 C -3.335938 -11.742188 -3.328125 -11.84375 -3.265625 -11.9375 L -2.703125 -12.6875 C -2.660156 -12.738281 -2.613281 -12.765625 -2.5625 -12.765625 C -2.519531 -12.765625 -2.472656 -12.75 -2.421875 -12.71875 L 5.078125 -7.109375 C 5.117188 -7.066406 5.144531 -7.019531 5.15625 -6.96875 C 5.164062 -6.925781 5.148438 -6.878906 5.109375 -6.828125 L 4.5625 -6.09375 C 4.519531 -6.03125 4.46875 -5.992188 4.40625 -5.984375 C 4.351562 -5.984375 4.304688 -6.003906 4.265625 -6.046875 L -1.421875 -10.296875 C -1.453125 -10.316406 -1.472656 -10.320312 -1.484375 -10.3125 C -1.492188 -10.300781 -1.492188 -10.28125 -1.484375 -10.25 L -0.15625 -6.859375 C -0.113281 -6.765625 -0.125 -6.671875 -0.1875 -6.578125 L -0.453125 -6.234375 C -0.523438 -6.140625 -0.613281 -6.097656 -0.71875 -6.109375 L -4.3125 -6.453125 C -4.351562 -6.453125 -4.375 -6.441406 -4.375 -6.421875 C -4.382812 -6.410156 -4.375 -6.394531 -4.34375 -6.375 L 1.34375 -2.125 C 1.382812 -2.082031 1.410156 -2.035156 1.421875 -1.984375 C 1.429688 -1.929688 1.410156 -1.878906 1.359375 -1.828125 Z M 0.828125 -1.09375 "/></g></g></g></svg>