<svg xmlns="http://www.w3.org/2000/svg" xmlns:xlink="http://www.w3.org/1999/xlink" width="100%" zoomAndPan="magnify" viewBox="0 0 375 374.999991" height="100%" preserveAspectRatio="xMidYMid meet" version="1.0"><defs><g/><clipPath id="23f57fa339"><path d="M 121.457031 105 L 177 105 L 177 150.503906 L 121.457031 150.503906 Z M 121.457031 105 " clip-rule="nonzero"/></clipPath><clipPath id="0e9076cc6a"><path d="M 145 97.253906 L 150 97.253906 L 150 100 L 145 100 Z M 145 97.253906 " clip-rule="nonzero"/></clipPath><clipPath id="247be588c1"><path d="M 174 112 L 177.707031 112 L 177.707031 116 L 174 116 Z M 174 112 " clip-rule="nonzero"/></clipPath></defs><g fill="#000000" fill-opacity="1"><g transform="translate(140.70969, 163.770779)"><g><path d="M 11.96875 -12.835938 C 12.074219 -12.835938 12.179688 -12.875 12.28125 -12.945312 C 12.523438 -13.058594 12.660156 -13.304688 12.867188 -13.449219 C 13.144531 -13.597656 13.3125 -13.808594 13.554688 -13.988281 C 13.757812 -14.203125 13.824219 -14.484375 14.136719 -14.5625 C 14.203125 -14.773438 14.269531 -14.949219 14.511719 -14.957031 C 14.582031 -14.957031 14.652344 -15.03125 14.648438 -15.101562 C 14.75 -15.347656 15.027344 -15.457031 15.09375 -15.667969 C 15.121094 -15.949219 15.292969 -16.128906 15.390625 -16.339844 C 15.460938 -16.484375 15.492188 -16.625 15.382812 -16.761719 C 15.347656 -16.796875 15.378906 -16.902344 15.449219 -16.902344 C 15.484375 -16.867188 15.519531 -16.871094 15.554688 -16.871094 C 15.625 -16.871094 15.695312 -16.945312 15.726562 -17.015625 C 15.929688 -17.4375 16.09375 -17.863281 16.257812 -18.285156 C 16.496094 -18.746094 16.589844 -19.203125 16.753906 -19.664062 C 16.921875 -20.085938 16.910156 -20.542969 17.074219 -20.964844 C 17.242188 -21.425781 17.019531 -21.910156 17.21875 -22.332031 C 17.253906 -22.371094 17.21875 -22.4375 17.21875 -22.472656 C 17.109375 -22.613281 17.140625 -22.789062 17.101562 -22.925781 C 17.019531 -23.414062 16.972656 -23.9375 16.582031 -24.316406 C 16.546875 -24.351562 16.542969 -24.382812 16.507812 -24.453125 C 16.066406 -25.390625 14.621094 -25.847656 13.675781 -25.929688 C 13.570312 -25.929688 13.5 -25.925781 13.394531 -25.925781 C 12.835938 -25.914062 12.242188 -25.757812 11.683594 -25.746094 C 11.648438 -25.746094 11.648438 -25.710938 11.613281 -25.710938 C 10.046875 -25.289062 7.9375 -24.160156 6.84375 -23.015625 C 6.738281 -22.871094 6.53125 -22.761719 6.394531 -22.617188 C 6.085938 -22.296875 5.707031 -22.042969 5.4375 -21.652344 C 5.234375 -21.332031 4.960938 -21.082031 4.789062 -20.796875 C 4.625 -20.445312 4.277344 -20.261719 4.074219 -19.941406 C 3.835938 -19.621094 3.597656 -19.335938 3.464844 -18.949219 C 3.367188 -18.664062 3.199219 -18.417969 3.027344 -18.203125 C 2.753906 -17.917969 2.585938 -17.632812 2.453125 -17.316406 C 2.015625 -16.429688 1.757812 -15.445312 1.464844 -14.492188 C 1.429688 -14.457031 1.429688 -14.386719 1.46875 -14.351562 C 1.46875 -14.316406 1.539062 -14.285156 1.574219 -14.214844 C 1.574219 -14.285156 1.570312 -14.355469 1.605469 -14.390625 C 1.605469 -14.425781 1.605469 -14.425781 1.640625 -14.460938 C 1.640625 -14.425781 1.675781 -14.390625 1.675781 -14.355469 C 1.679688 -14.285156 1.644531 -14.25 1.574219 -14.214844 C 1.578125 -14.109375 1.578125 -14.003906 1.582031 -13.863281 C 1.585938 -13.792969 1.515625 -13.722656 1.445312 -13.6875 C 1.453125 -13.476562 1.421875 -13.265625 1.355469 -13.054688 C 1.160156 -12.488281 1.101562 -11.894531 0.976562 -11.296875 C 0.941406 -11.222656 0.945312 -11.121094 1.015625 -11.050781 C 1.152344 -11.125 1.078125 -11.296875 1.148438 -11.402344 C 1.214844 -11.476562 1.214844 -11.546875 1.210938 -11.652344 C 1.429688 -12.914062 2.15625 -14.824219 2.9375 -15.855469 C 2.972656 -15.925781 3.003906 -16.03125 3.074219 -16.101562 C 3.613281 -17.027344 4.1875 -17.949219 4.796875 -18.871094 C 4.964844 -19.15625 5.207031 -19.441406 5.375 -19.726562 C 5.441406 -19.867188 5.542969 -19.972656 5.648438 -20.046875 C 6.023438 -20.371094 6.222656 -20.898438 6.671875 -21.15625 C 6.742188 -21.191406 6.773438 -21.296875 6.808594 -21.402344 C 6.976562 -21.617188 7.183594 -21.832031 7.425781 -22.011719 C 7.527344 -22.082031 7.632812 -22.15625 7.734375 -22.261719 C 8.007812 -22.480469 8.246094 -22.765625 8.558594 -22.945312 C 8.871094 -23.128906 9.109375 -23.34375 9.386719 -23.5625 C 9.589844 -23.738281 9.800781 -23.851562 10.007812 -23.960938 C 11.25 -24.722656 12.433594 -25.097656 13.902344 -25.132812 C 14.148438 -25.101562 14.886719 -24.976562 15.03125 -24.769531 C 15.425781 -24.289062 15.648438 -23.699219 15.769531 -23.105469 C 15.890625 -22.375 15.800781 -21.671875 15.640625 -20.96875 C 15.292969 -19.28125 14.757812 -18.078125 14.023438 -16.484375 C 13.789062 -15.992188 13.589844 -15.496094 13.179688 -15.136719 C 13.144531 -15.101562 13.144531 -15.03125 13.109375 -15.03125 C 12.804688 -14.636719 12.535156 -14.210938 12.191406 -13.855469 C 10.855469 -12.460938 9.023438 -11.472656 7.289062 -10.699219 C 7.152344 -10.660156 7.011719 -10.625 6.945312 -10.515625 C 6.839844 -10.445312 6.628906 -10.511719 6.597656 -10.300781 C 6.667969 -10.300781 6.773438 -10.304688 6.84375 -10.304688 C 6.949219 -10.308594 7.054688 -10.308594 7.191406 -10.382812 C 7.398438 -10.492188 7.675781 -10.605469 7.921875 -10.714844 C 8.785156 -11.082031 9.652344 -11.488281 10.445312 -12.03125 C 10.617188 -12.175781 10.792969 -12.28125 11 -12.394531 C 11.066406 -12.464844 11.171875 -12.535156 11.238281 -12.609375 C 11.683594 -13.074219 12.238281 -13.402344 12.613281 -13.863281 C 12.644531 -13.898438 12.714844 -13.902344 12.75 -13.9375 C 12.75 -14.007812 12.78125 -14.078125 12.886719 -14.082031 C 12.886719 -14.113281 12.921875 -14.152344 12.917969 -14.1875 C 12.992188 -14.082031 12.886719 -14.113281 12.851562 -14.078125 C 12.851562 -14.007812 12.820312 -13.9375 12.75 -13.9375 C 12.753906 -13.832031 12.71875 -13.726562 12.652344 -13.65625 C 12.414062 -13.371094 12.136719 -13.152344 11.96875 -12.835938 Z M 1.839844 -14.921875 C 1.804688 -14.851562 1.773438 -14.742188 1.773438 -14.675781 C 1.738281 -14.707031 1.703125 -14.742188 1.703125 -14.777344 C 1.734375 -14.847656 1.769531 -14.882812 1.839844 -14.886719 C 1.839844 -14.992188 1.835938 -15.09375 1.835938 -15.164062 C 1.832031 -15.199219 1.867188 -15.203125 1.902344 -15.238281 C 1.902344 -15.203125 1.9375 -15.167969 1.941406 -15.132812 C 1.941406 -15.027344 1.910156 -14.957031 1.839844 -14.921875 Z M 14.1875 -15.441406 C 13.941406 -15.503906 13.867188 -15.609375 13.933594 -15.785156 C 14.003906 -15.855469 14.070312 -15.960938 14.175781 -16 C 14.171875 -16.210938 14.269531 -16.421875 14.441406 -16.566406 C 14.441406 -16.601562 14.476562 -16.601562 14.511719 -16.601562 C 14.582031 -16.605469 14.617188 -16.570312 14.652344 -16.605469 C 14.71875 -16.675781 14.71875 -16.78125 14.785156 -16.816406 C 14.992188 -16.960938 14.953125 -17.207031 15.019531 -17.382812 C 15.085938 -17.488281 14.773438 -17.449219 14.910156 -17.625 C 15.148438 -17.945312 15.207031 -18.402344 15.304688 -18.789062 C 15.46875 -19.285156 15.5625 -19.8125 15.726562 -20.304688 C 15.753906 -20.480469 15.785156 -20.726562 16.027344 -20.800781 C 16.136719 -20.664062 16.070312 -20.523438 16.039062 -20.382812 C 15.914062 -19.75 15.785156 -19.117188 15.554688 -18.515625 C 15.488281 -18.339844 15.628906 -18.308594 15.703125 -18.203125 C 15.632812 -18.132812 15.5625 -18.0625 15.460938 -17.953125 C 15.394531 -17.882812 15.359375 -17.777344 15.328125 -17.671875 C 15.332031 -17.460938 15.40625 -17.253906 15.128906 -17.175781 C 15.238281 -16.96875 15.03125 -16.824219 15.035156 -16.683594 C 15.039062 -16.472656 14.972656 -16.367188 14.871094 -16.226562 C 14.769531 -16.011719 14.667969 -15.941406 14.527344 -15.9375 C 14.421875 -15.933594 14.351562 -15.96875 14.246094 -16 C 14.210938 -16 14.175781 -16 14.175781 -16 C 14.179688 -15.824219 14.183594 -15.613281 14.1875 -15.441406 C 14.433594 -15.410156 14.433594 -15.410156 14.367188 -15.269531 C 14.332031 -15.199219 14.332031 -15.164062 14.300781 -15.125 C 14.195312 -15.089844 14.160156 -15.089844 14.125 -15.089844 C 14.125 -15.089844 14.089844 -15.121094 14.089844 -15.15625 C 14.050781 -15.261719 14.191406 -15.335938 14.1875 -15.441406 Z M 16.011719 -18.421875 C 16.011719 -18.457031 16.046875 -18.492188 16.078125 -18.527344 C 16.148438 -18.492188 16.117188 -18.351562 16.082031 -18.351562 C 16.046875 -18.351562 16.011719 -18.386719 16.011719 -18.421875 Z M 1.964844 -15.554688 C 1.964844 -15.589844 2 -15.625 2.035156 -15.660156 C 2.035156 -15.625 2.070312 -15.554688 2.035156 -15.554688 C 2.039062 -15.484375 2.003906 -15.484375 1.964844 -15.554688 Z M 14.390625 -15.652344 L 14.359375 -15.652344 L 14.390625 -15.6875 Z M 2.132812 -15.941406 L 2.167969 -15.941406 L 2.132812 -15.90625 Z M 13.089844 -14.398438 L 13.054688 -14.398438 L 13.054688 -14.433594 Z M 0.277344 -6.414062 C 0.273438 -6.691406 0.230469 -7.007812 0.324219 -7.429688 C 0.40625 -7.011719 0.410156 -6.730469 0.347656 -6.484375 C 0.347656 -6.449219 0.3125 -6.414062 0.277344 -6.414062 C 0.28125 -6.34375 0.28125 -6.308594 0.28125 -6.273438 C 0.425781 -6.136719 0.425781 -6.136719 0.289062 -5.992188 C 0.308594 -5.011719 0.296875 -3.996094 0.320312 -2.984375 C 0.214844 -2.980469 0.210938 -3.050781 0.210938 -3.121094 C 0.191406 -3.996094 0.171875 -4.835938 0.152344 -5.710938 C 0.148438 -5.851562 0.148438 -5.957031 0.289062 -5.992188 C 0.285156 -6.097656 0.285156 -6.167969 0.28125 -6.273438 C 0.210938 -6.273438 0.140625 -6.269531 0.0703125 -6.234375 C 0.0390625 -6.199219 0.00390625 -6.128906 0.00390625 -6.058594 C 0.015625 -5.53125 0.0273438 -5.007812 0.0390625 -4.515625 C 0.0429688 -4.378906 0.0820312 -4.238281 0.015625 -4.097656 C -0.0507812 -3.921875 -0.117188 -3.742188 -0.0078125 -3.535156 C -0.0742188 -3.324219 -0.0351562 -3.148438 -0.0664062 -2.941406 C -0.0507812 -2.34375 0.105469 -1.613281 0.292969 -1.058594 C 0.328125 -0.988281 0.367188 -0.882812 0.402344 -0.8125 C 0.515625 -0.398438 0.628906 0.0195312 0.953125 0.398438 C 1.132812 0.605469 1.28125 0.882812 1.460938 1.15625 C 1.570312 1.296875 1.640625 1.398438 1.75 1.535156 C 1.785156 1.605469 1.855469 1.605469 1.890625 1.605469 C 1.960938 1.601562 1.996094 1.601562 2.066406 1.566406 C 2.238281 1.492188 2.375 1.382812 2.476562 1.171875 C 2.542969 0.992188 2.644531 0.851562 2.746094 0.710938 C 2.953125 0.496094 3.050781 0.28125 3.117188 0 C 3.179688 -0.246094 3.28125 -0.492188 3.414062 -0.707031 C 3.550781 -0.917969 3.542969 -1.234375 3.609375 -1.480469 C 3.640625 -1.550781 3.675781 -1.621094 3.710938 -1.65625 C 3.882812 -1.800781 3.875 -2.011719 3.941406 -2.222656 C 4.007812 -2.398438 3.96875 -2.609375 4.035156 -2.785156 C 4.066406 -2.996094 4.164062 -3.171875 4.230469 -3.351562 C 4.300781 -3.492188 4.332031 -3.597656 4.363281 -3.738281 C 4.554688 -4.652344 4.8125 -5.570312 5.074219 -6.484375 C 5.136719 -6.730469 5.273438 -6.945312 5.230469 -7.1875 C 5.230469 -7.328125 5.261719 -7.433594 5.332031 -7.503906 C 5.5 -7.71875 5.566406 -7.964844 5.59375 -8.175781 C 5.625 -8.386719 5.65625 -8.527344 5.722656 -8.703125 C 5.851562 -9.234375 6.015625 -9.761719 6.179688 -10.289062 C 6.175781 -10.359375 6.210938 -10.429688 6.210938 -10.5 C 6.167969 -10.851562 6.332031 -11.203125 6.429688 -11.519531 C 6.558594 -12.121094 6.683594 -12.753906 6.8125 -13.351562 C 6.941406 -13.84375 7 -14.371094 7.09375 -14.863281 C 7.1875 -15.355469 7.28125 -15.882812 7.511719 -16.410156 C 7.613281 -16.660156 7.640625 -17.011719 7.667969 -17.289062 C 7.703125 -17.394531 7.664062 -17.464844 7.628906 -17.570312 C 7.550781 -17.8125 7.375 -17.984375 7.195312 -18.121094 C 7.089844 -18.222656 6.949219 -18.253906 6.808594 -18.25 C 6.527344 -18.246094 6.25 -18.0625 6.1875 -17.746094 C 6.09375 -17.289062 6.070312 -16.800781 5.941406 -16.308594 C 5.84375 -15.917969 5.816406 -15.5 5.722656 -15.078125 C 5.628906 -14.480469 5.574219 -13.882812 5.445312 -13.320312 C 5.414062 -13.144531 5.382812 -13.003906 5.351562 -12.863281 C 5.324219 -12.546875 5.261719 -12.230469 5.195312 -11.949219 C 4.96875 -11.105469 4.742188 -10.257812 4.515625 -9.449219 C 4.257812 -8.460938 4.035156 -7.511719 3.707031 -6.558594 C 3.34375 -5.464844 3.054688 -4.339844 2.800781 -3.214844 C 2.574219 -2.332031 2.242188 -1.484375 1.910156 -0.636719 C 1.878906 -0.566406 1.84375 -0.460938 1.8125 -0.390625 C 1.675781 -0.246094 1.574219 -0.140625 1.46875 -0.136719 C 1.398438 -0.136719 1.289062 -0.203125 1.179688 -0.410156 C 1.105469 -0.621094 0.890625 -0.824219 1.0625 -1.074219 C 1.023438 -1.25 0.949219 -1.386719 0.945312 -1.527344 C 0.9375 -2.015625 0.679688 -2.429688 0.742188 -2.921875 C 0.558594 -3.234375 0.621094 -3.621094 0.578125 -3.96875 C 0.5625 -4.597656 0.550781 -5.230469 0.570312 -5.859375 C 0.5625 -6.175781 0.484375 -6.523438 0.652344 -6.839844 C 0.6875 -6.949219 0.648438 -7.085938 0.644531 -7.226562 C 0.640625 -7.367188 0.605469 -7.503906 0.671875 -7.648438 C 0.804688 -7.929688 0.726562 -8.242188 0.753906 -8.558594 C 0.753906 -8.699219 0.75 -8.875 0.78125 -9.015625 C 0.910156 -9.402344 0.867188 -9.824219 0.964844 -10.210938 C 1.03125 -10.351562 1.027344 -10.527344 0.917969 -10.664062 C 0.816406 -10.589844 0.851562 -10.488281 0.855469 -10.382812 C 0.855469 -10.277344 0.824219 -10.207031 0.71875 -10.167969 C 0.691406 -9.921875 0.765625 -9.644531 0.632812 -9.398438 C 0.644531 -8.871094 0.410156 -8.375 0.492188 -7.820312 C 0.492188 -7.75 0.53125 -7.609375 0.394531 -7.535156 C 0.316406 -7.816406 0.414062 -8.097656 0.304688 -8.375 C 0.203125 -8.195312 0.242188 -8.058594 0.246094 -7.882812 C 0.210938 -7.777344 0.25 -7.671875 0.21875 -7.566406 C 0.0507812 -7.214844 0.164062 -6.867188 0.136719 -6.515625 C 0.136719 -6.480469 0.242188 -6.449219 0.277344 -6.414062 Z M 4.058594 -4.886719 C 4.058594 -4.78125 4.027344 -4.746094 3.921875 -4.742188 C 3.960938 -4.464844 3.789062 -4.355469 3.617188 -4.210938 C 3.582031 -4.210938 3.511719 -4.175781 3.480469 -4.171875 C 3.410156 -4.171875 3.371094 -4.207031 3.371094 -4.207031 C 3.300781 -4.273438 3.371094 -4.347656 3.367188 -4.382812 C 3.4375 -4.488281 3.363281 -4.660156 3.535156 -4.734375 C 3.535156 -4.839844 3.566406 -4.945312 3.5625 -5.121094 C 3.707031 -4.949219 3.710938 -4.808594 3.535156 -4.734375 C 3.574219 -4.628906 3.609375 -4.597656 3.679688 -4.597656 C 3.714844 -4.597656 3.75 -4.597656 3.785156 -4.636719 C 3.816406 -4.671875 3.886719 -4.707031 3.957031 -4.746094 C 3.953125 -4.8125 3.988281 -4.851562 4.058594 -4.851562 C 4.09375 -4.886719 4.09375 -4.921875 4.125 -4.957031 C 4.199219 -4.890625 4.09375 -4.886719 4.058594 -4.886719 Z M 2.820312 -0.65625 C 2.820312 -0.726562 2.816406 -0.796875 2.816406 -0.832031 C 2.851562 -0.867188 2.851562 -0.867188 2.886719 -0.902344 C 2.886719 -0.871094 2.921875 -0.835938 2.921875 -0.800781 C 2.890625 -0.765625 2.855469 -0.730469 2.820312 -0.691406 C 2.824219 -0.554688 2.824219 -0.449219 2.6875 -0.410156 C 2.6875 -0.339844 2.652344 -0.304688 2.621094 -0.199219 C 2.621094 -0.234375 2.550781 -0.265625 2.585938 -0.265625 C 2.617188 -0.339844 2.652344 -0.375 2.6875 -0.410156 C 2.683594 -0.480469 2.683594 -0.585938 2.679688 -0.691406 C 2.644531 -0.652344 2.578125 -0.617188 2.507812 -0.582031 C 2.472656 -0.546875 2.402344 -0.542969 2.332031 -0.578125 C 2.332031 -0.613281 2.296875 -0.679688 2.292969 -0.714844 C 2.328125 -0.820312 2.394531 -0.964844 2.425781 -1.070312 C 2.457031 -1.210938 2.5625 -1.210938 2.667969 -1.214844 C 2.632812 -1.285156 2.628906 -1.355469 2.59375 -1.457031 C 2.699219 -1.496094 2.769531 -1.496094 2.871094 -1.5 C 2.976562 -1.5 3.082031 -1.503906 3.152344 -1.433594 C 3.089844 -1.257812 2.949219 -1.222656 2.773438 -1.21875 C 2.738281 -1.214844 2.703125 -1.214844 2.667969 -1.214844 C 2.601562 -1.074219 2.605469 -0.933594 2.679688 -0.792969 C 2.679688 -0.757812 2.679688 -0.726562 2.679688 -0.65625 C 2.714844 -0.65625 2.785156 -0.65625 2.820312 -0.65625 Z M 5.421875 -11.21875 C 5.421875 -11.324219 5.417969 -11.464844 5.449219 -11.640625 C 5.558594 -11.433594 5.597656 -11.292969 5.386719 -11.21875 C 5.394531 -11.007812 5.46875 -10.800781 5.332031 -10.585938 C 5.261719 -10.585938 5.261719 -10.585938 5.226562 -10.585938 C 5.292969 -10.796875 5.183594 -11.039062 5.421875 -11.21875 Z M 4.417969 -7.554688 C 4.417969 -7.589844 4.453125 -7.625 4.453125 -7.660156 C 4.558594 -7.558594 4.453125 -7.589844 4.417969 -7.589844 C 4.425781 -7.277344 4.425781 -7.277344 4.605469 -7.070312 C 4.570312 -7.035156 4.5 -7.03125 4.429688 -7.03125 C 4.359375 -7.027344 4.289062 -7.027344 4.21875 -7.0625 C 4.25 -7.238281 4.316406 -7.378906 4.347656 -7.554688 C 4.347656 -7.554688 4.382812 -7.554688 4.417969 -7.554688 Z M 4.78125 -8.507812 C 4.746094 -8.542969 4.710938 -8.578125 4.675781 -8.578125 C 4.636719 -8.820312 4.597656 -9.03125 4.765625 -9.207031 C 4.871094 -9.351562 4.902344 -9.492188 4.933594 -9.632812 C 4.964844 -9.703125 5.070312 -9.742188 5.105469 -9.671875 C 5.109375 -9.636719 5.144531 -9.601562 5.144531 -9.566406 C 5.011719 -9.214844 4.84375 -8.894531 4.78125 -8.507812 C 4.816406 -8.507812 4.855469 -8.476562 4.886719 -8.476562 C 4.785156 -8.367188 4.820312 -8.472656 4.78125 -8.507812 Z M 3.613281 -2.8125 C 3.480469 -2.492188 3.203125 -2.382812 2.890625 -2.304688 C 2.851562 -2.375 2.851562 -2.375 2.851562 -2.410156 C 2.917969 -2.585938 3.164062 -2.589844 3.265625 -2.804688 C 3.296875 -2.839844 3.332031 -2.875 3.402344 -2.875 C 3.472656 -2.878906 3.578125 -2.84375 3.613281 -2.8125 Z M 4.289062 -5.523438 C 4.257812 -5.417969 4.222656 -5.34375 4.1875 -5.273438 C 4.15625 -5.203125 4.085938 -5.132812 4.015625 -5.164062 C 3.910156 -5.199219 3.804688 -5.265625 3.734375 -5.335938 C 3.699219 -5.332031 3.695312 -5.402344 3.695312 -5.4375 C 3.695312 -5.472656 3.765625 -5.511719 3.765625 -5.511719 C 3.835938 -5.511719 3.867188 -5.511719 3.9375 -5.515625 C 4.042969 -5.515625 4.148438 -5.519531 4.289062 -5.523438 Z M 4.574219 -8.398438 C 4.683594 -8.226562 4.722656 -8.121094 4.757812 -8.019531 C 4.65625 -7.980469 4.550781 -7.945312 4.480469 -7.871094 C 4.371094 -8.078125 4.546875 -8.152344 4.574219 -8.398438 Z M 4.027344 -6.320312 C 4.027344 -6.285156 4.027344 -6.25 4.027344 -6.25 C 4.027344 -6.214844 3.996094 -6.179688 3.996094 -6.144531 C 3.960938 -6.179688 3.925781 -6.179688 3.921875 -6.214844 C 3.886719 -6.25 3.921875 -6.25 3.921875 -6.285156 C 3.921875 -6.320312 3.917969 -6.390625 3.988281 -6.390625 C 3.988281 -6.390625 4.023438 -6.355469 4.027344 -6.320312 Z M 4.191406 -6.675781 C 4.261719 -6.675781 4.335938 -6.644531 4.371094 -6.609375 C 4.40625 -6.574219 4.371094 -6.539062 4.335938 -6.503906 C 4.300781 -6.503906 4.265625 -6.5 4.265625 -6.5 C 4.195312 -6.535156 4.160156 -6.605469 4.191406 -6.675781 Z M 5.648438 -12.0625 C 5.613281 -12.027344 5.617188 -11.992188 5.617188 -11.957031 C 5.582031 -11.992188 5.546875 -12.027344 5.542969 -12.0625 C 5.542969 -12.167969 5.578125 -12.203125 5.574219 -12.238281 C 5.609375 -12.203125 5.613281 -12.167969 5.648438 -12.132812 C 5.648438 -12.132812 5.648438 -12.097656 5.648438 -12.0625 Z M 2.488281 0.0507812 C 2.523438 0.0859375 2.558594 0.117188 2.558594 0.117188 C 2.523438 0.152344 2.523438 0.1875 2.492188 0.226562 C 2.488281 0.15625 2.488281 0.121094 2.488281 0.0507812 Z M 2.730469 -1.671875 C 2.726562 -1.707031 2.761719 -1.742188 2.796875 -1.742188 C 2.832031 -1.742188 2.832031 -1.707031 2.835938 -1.636719 C 2.800781 -1.636719 2.765625 -1.671875 2.730469 -1.671875 Z M 3.257812 -3.046875 C 3.222656 -3.011719 3.1875 -3.011719 3.15625 -2.976562 C 3.15625 -2.976562 3.117188 -3.046875 3.082031 -3.042969 C 3.152344 -3.046875 3.1875 -3.046875 3.257812 -3.046875 Z M 3.5625 -3.613281 C 3.597656 -3.617188 3.597656 -3.582031 3.632812 -3.582031 C 3.597656 -3.546875 3.5625 -3.546875 3.527344 -3.542969 C 3.527344 -3.542969 3.492188 -3.542969 3.492188 -3.578125 C 3.492188 -3.578125 3.527344 -3.613281 3.5625 -3.613281 Z M 5.203125 -10.09375 C 5.238281 -10.058594 5.273438 -10.023438 5.273438 -10.023438 C 5.273438 -9.988281 5.242188 -9.953125 5.207031 -9.917969 C 5.207031 -9.953125 5.171875 -9.953125 5.171875 -9.988281 C 5.203125 -10.023438 5.203125 -10.058594 5.203125 -10.09375 Z M 3.863281 -5.757812 L 3.863281 -5.722656 L 3.828125 -5.757812 Z M 1.925781 0.0625 L 1.996094 0.0625 Z M 3.21875 -3.328125 L 3.253906 -3.328125 L 3.21875 -3.292969 Z M 3.246094 -3.574219 L 3.210938 -3.574219 L 3.210938 -3.605469 Z M 5.394531 -9.398438 L 5.359375 -9.398438 L 5.390625 -9.433594 Z M 11.96875 -12.835938 C 11.933594 -12.832031 11.898438 -12.832031 11.863281 -12.832031 C 11.792969 -12.832031 11.757812 -12.828125 11.726562 -12.757812 C 11.726562 -12.722656 11.726562 -12.6875 11.726562 -12.652344 C 11.730469 -12.617188 11.800781 -12.621094 11.832031 -12.65625 C 11.902344 -12.691406 11.9375 -12.765625 11.96875 -12.835938 Z M 1.445312 -13.6875 C 1.445312 -13.792969 1.476562 -13.933594 1.371094 -14.035156 C 1.339844 -13.824219 1.339844 -13.824219 1.445312 -13.6875 Z M 1.3125 -13.402344 C 1.277344 -13.4375 1.277344 -13.472656 1.242188 -13.507812 C 1.242188 -13.4375 1.242188 -13.402344 1.246094 -13.332031 C 1.277344 -13.367188 1.277344 -13.367188 1.3125 -13.402344 Z M 0.585938 -9.886719 C 0.550781 -9.921875 0.550781 -9.957031 0.511719 -9.988281 C 0.515625 -9.917969 0.515625 -9.882812 0.515625 -9.816406 C 0.550781 -9.851562 0.550781 -9.886719 0.585938 -9.886719 Z M 11.417969 -12.4375 C 11.417969 -12.402344 11.277344 -12.433594 11.386719 -12.332031 C 11.382812 -12.367188 11.417969 -12.402344 11.417969 -12.4375 Z M 11.417969 -12.4375 C 11.453125 -12.472656 11.558594 -12.441406 11.484375 -12.507812 C 11.453125 -12.507812 11.453125 -12.472656 11.417969 -12.4375 Z M 0.71875 -10.167969 C 0.683594 -10.203125 0.714844 -10.308594 0.613281 -10.238281 C 0.648438 -10.203125 0.683594 -10.203125 0.71875 -10.167969 Z M 0.71875 -10.167969 "/></g></g></g><g clip-path="url(#23f57fa339)"><path fill="#000000" d="M 147.457031 105.355469 L 147.414062 105.355469 C 147.066406 105.324219 146.765625 105.796875 146.507812 106.769531 C 144.488281 115.574219 142.03125 125.136719 139.140625 135.46875 L 129.558594 127.207031 C 126.769531 124.902344 125.058594 123.578125 124.421875 123.242188 C 123.355469 122.566406 122.582031 122.441406 122.101562 122.859375 C 121.675781 123.203125 121.640625 123.910156 122 124.980469 C 122.71875 127.019531 124.820312 131.289062 128.296875 137.789062 C 128.78125 138.90625 131.113281 142.78125 135.28125 149.410156 C 135.007812 148.183594 131.550781 141.207031 124.910156 128.480469 C 124.023438 126.648438 123.339844 125.105469 122.859375 123.851562 C 123.464844 124 124.949219 125.042969 127.304688 126.980469 L 138.652344 136.664062 C 138.929688 136.902344 139.253906 136.960938 139.617188 136.84375 C 141.328125 133.261719 144.070312 123.207031 147.851562 106.671875 C 148.925781 108.277344 152.128906 117.074219 157.46875 133.066406 C 158.042969 134.589844 158.5 135.449219 158.839844 135.644531 C 159.113281 135.875 160.03125 135.277344 161.597656 133.855469 C 167.976562 128.308594 172.578125 124.097656 175.398438 121.226562 C 174.582031 123.375 173.664062 125.542969 172.640625 127.730469 C 172.738281 127.628906 170.691406 131.582031 166.496094 139.589844 C 165.207031 142.117188 164.109375 144.351562 163.203125 146.292969 C 162.648438 147.4375 162.277344 148.839844 162.09375 150.503906 C 162.5 149.355469 162.980469 148.230469 163.542969 147.128906 C 167.074219 141.085938 170.480469 134.816406 173.753906 128.320312 C 174.675781 126.339844 175.542969 124.320312 176.351562 122.269531 C 176.757812 121.257812 176.890625 120.632812 176.753906 120.390625 C 176.289062 119.417969 175.453125 119.457031 174.25 120.507812 C 171.1875 123.726562 166.078125 128.359375 158.917969 134.40625 C 155.949219 124.601562 153.335938 116.78125 151.074219 110.949219 C 149.574219 106.960938 148.371094 105.097656 147.457031 105.355469 " fill-opacity="1" fill-rule="nonzero"/></g><path fill="#000000" d="M 123.816406 115.875 L 123.828125 115.875 C 124.289062 115.886719 124.609375 115.964844 124.789062 116.117188 C 124.871094 116.171875 124.925781 116.261719 124.949219 116.394531 C 124.964844 116.515625 124.957031 116.613281 124.921875 116.691406 C 124.863281 116.816406 124.796875 116.910156 124.71875 116.96875 C 124.535156 117.121094 124.359375 117.25 124.183594 117.347656 C 124 117.453125 123.808594 117.542969 123.601562 117.613281 C 123.371094 117.699219 123.203125 117.738281 123.097656 117.734375 C 122.988281 117.734375 122.878906 117.710938 122.769531 117.652344 C 122.699219 117.609375 122.617188 117.523438 122.519531 117.386719 C 122.445312 117.285156 122.359375 117.125 122.261719 116.910156 C 122.226562 116.792969 122.230469 116.671875 122.277344 116.550781 C 122.355469 116.34375 122.527344 116.183594 122.796875 116.070312 C 123.109375 115.9375 123.449219 115.875 123.816406 115.875 M 124.191406 115.320312 L 124.179688 115.320312 C 123.753906 115.316406 123.328125 115.414062 122.902344 115.613281 C 122.507812 115.816406 122.269531 116.050781 122.183594 116.324219 C 122.15625 116.40625 122.140625 116.492188 122.140625 116.574219 C 122.144531 116.671875 122.164062 116.761719 122.207031 116.84375 C 122.1875 116.84375 122.179688 116.832031 122.175781 116.8125 L 122.171875 116.832031 C 122.164062 116.910156 122.167969 117.007812 122.183594 117.121094 C 122.210938 117.328125 122.273438 117.515625 122.371094 117.6875 C 122.539062 118.003906 122.835938 118.167969 123.261719 118.1875 C 123.796875 118.15625 124.324219 117.996094 124.84375 117.707031 C 125.292969 117.453125 125.570312 117.15625 125.671875 116.820312 C 125.777344 116.429688 125.679688 116.066406 125.382812 115.730469 C 125.117188 115.460938 124.71875 115.324219 124.191406 115.320312 " fill-opacity="1" fill-rule="nonzero"/><g clip-path="url(#0e9076cc6a)"><path fill="#000000" d="M 147.023438 97.707031 L 147.039062 97.707031 C 147.414062 97.714844 147.792969 97.785156 148.171875 97.910156 C 148.3125 97.957031 148.445312 98.023438 148.558594 98.101562 C 148.648438 98.171875 148.695312 98.238281 148.703125 98.296875 C 148.726562 98.386719 148.695312 98.507812 148.605469 98.667969 C 148.523438 98.796875 148.410156 98.921875 148.265625 99.039062 C 148 99.242188 147.707031 99.339844 147.382812 99.335938 C 147.21875 99.335938 147.082031 99.316406 146.980469 99.273438 C 146.847656 99.226562 146.71875 99.144531 146.59375 99.027344 C 146.5 98.929688 146.40625 98.804688 146.324219 98.648438 C 146.28125 98.585938 146.183594 98.359375 146.023438 97.960938 C 146.195312 97.792969 146.527344 97.707031 147.023438 97.707031 M 147.550781 97.253906 L 147.527344 97.253906 C 147.175781 97.253906 146.847656 97.304688 146.550781 97.40625 C 146.269531 97.507812 146.070312 97.632812 145.960938 97.789062 C 145.925781 97.667969 145.890625 97.589844 145.847656 97.558594 L 145.832031 97.472656 C 145.800781 97.628906 145.789062 97.828125 145.804688 98.070312 C 145.773438 98.140625 145.757812 98.257812 145.761719 98.417969 L 145.761719 98.449219 C 145.765625 98.351562 145.78125 98.273438 145.816406 98.210938 C 145.890625 98.84375 146.105469 99.308594 146.464844 99.609375 C 146.648438 99.753906 146.828125 99.851562 147.003906 99.898438 C 147.191406 99.960938 147.386719 99.992188 147.589844 99.992188 C 148.089844 99.984375 148.539062 99.816406 148.933594 99.492188 C 149.273438 99.175781 149.4375 98.8125 149.433594 98.402344 C 149.382812 97.660156 148.753906 97.277344 147.550781 97.253906 " fill-opacity="1" fill-rule="nonzero"/></g><g clip-path="url(#247be588c1)"><path fill="#000000" d="M 175.03125 112.773438 L 175.015625 112.800781 C 174.808594 113.292969 174.714844 113.753906 174.730469 114.191406 C 174.765625 114.527344 174.921875 114.792969 175.210938 114.984375 C 175.566406 115.210938 175.976562 115.269531 176.4375 115.164062 C 176.664062 115.101562 176.875 114.992188 177.078125 114.839844 C 177.261719 114.699219 177.398438 114.546875 177.488281 114.378906 C 177.625 114.125 177.628906 113.878906 177.492188 113.636719 C 177.378906 113.433594 177.167969 113.332031 176.863281 113.335938 C 176.742188 113.335938 176.578125 113.375 176.378906 113.457031 C 176.273438 113.496094 175.988281 113.652344 175.523438 113.933594 C 175.722656 113.835938 175.976562 113.753906 176.285156 113.683594 C 176.574219 113.632812 176.785156 113.625 176.910156 113.660156 C 177.050781 113.695312 177.128906 113.761719 177.144531 113.859375 C 177.140625 114.003906 177.0625 114.136719 176.90625 114.257812 C 176.722656 114.410156 176.4375 114.523438 176.050781 114.59375 C 175.800781 114.632812 175.582031 114.597656 175.402344 114.492188 C 175.265625 114.40625 175.171875 114.265625 175.128906 114.078125 C 175.105469 113.976562 175.09375 113.851562 175.085938 113.699219 C 175.082031 113.617188 175.078125 113.4375 175.078125 113.160156 L 175.066406 112.910156 C 175.066406 112.878906 175.054688 112.847656 175.03125 112.820312 L 175.03125 112.773438 " fill-opacity="1" fill-rule="nonzero"/></g><g fill="#000000" fill-opacity="1"><g transform="translate(112.892762, 163.753038)"><g><path d="M 5.40625 -0.890625 C 5.570312 -0.660156 5.675781 -0.421875 5.71875 -0.171875 C 5.757812 0.0664062 5.722656 0.296875 5.609375 0.515625 C 5.503906 0.742188 5.34375 0.9375 5.125 1.09375 C 4.894531 1.257812 4.660156 1.359375 4.421875 1.390625 C 4.191406 1.421875 3.957031 1.378906 3.71875 1.265625 C 3.488281 1.148438 3.289062 0.976562 3.125 0.75 L 2.40625 -0.234375 C 2.394531 -0.253906 2.382812 -0.253906 2.375 -0.234375 L 0.8125 0.90625 C 0.78125 0.925781 0.75 0.929688 0.71875 0.921875 C 0.6875 0.921875 0.660156 0.90625 0.640625 0.875 L 0.375 0.515625 C 0.351562 0.492188 0.34375 0.46875 0.34375 0.4375 C 0.351562 0.40625 0.375 0.378906 0.40625 0.359375 L 4.1875 -2.421875 C 4.207031 -2.429688 4.226562 -2.429688 4.25 -2.421875 C 4.269531 -2.410156 4.289062 -2.394531 4.3125 -2.375 Z M 3.53125 0.375 C 3.675781 0.59375 3.859375 0.71875 4.078125 0.75 C 4.304688 0.78125 4.519531 0.722656 4.71875 0.578125 C 4.914062 0.421875 5.03125 0.234375 5.0625 0.015625 C 5.101562 -0.191406 5.050781 -0.40625 4.90625 -0.625 L 4.21875 -1.546875 C 4.207031 -1.566406 4.191406 -1.570312 4.171875 -1.5625 L 2.859375 -0.609375 C 2.835938 -0.585938 2.832031 -0.566406 2.84375 -0.546875 Z M 3.53125 0.375 "/></g></g></g><g fill="#000000" fill-opacity="1"><g transform="translate(117.870482, 169.958575)"><g><path d="M 2.46875 2.328125 C 2.425781 2.285156 2.410156 2.234375 2.421875 2.171875 L 3.15625 0.015625 C 3.15625 0.00390625 3.148438 -0.0078125 3.140625 -0.03125 L 2.421875 -0.703125 C 2.398438 -0.710938 2.382812 -0.710938 2.375 -0.703125 L 0.984375 0.78125 C 0.960938 0.800781 0.9375 0.8125 0.90625 0.8125 C 0.875 0.8125 0.847656 0.800781 0.828125 0.78125 L 0.484375 0.453125 C 0.460938 0.429688 0.453125 0.40625 0.453125 0.375 C 0.460938 0.351562 0.476562 0.332031 0.5 0.3125 L 3.703125 -3.109375 C 3.722656 -3.128906 3.742188 -3.140625 3.765625 -3.140625 C 3.785156 -3.140625 3.804688 -3.128906 3.828125 -3.109375 L 5.171875 -1.84375 C 5.378906 -1.644531 5.519531 -1.429688 5.59375 -1.203125 C 5.675781 -0.972656 5.6875 -0.742188 5.625 -0.515625 C 5.570312 -0.285156 5.453125 -0.0664062 5.265625 0.140625 C 5.046875 0.367188 4.796875 0.503906 4.515625 0.546875 C 4.234375 0.597656 3.957031 0.550781 3.6875 0.40625 C 3.664062 0.40625 3.65625 0.414062 3.65625 0.4375 L 2.953125 2.609375 L 2.921875 2.65625 C 2.890625 2.6875 2.851562 2.679688 2.8125 2.640625 Z M 3.890625 -2.265625 C 3.867188 -2.273438 3.851562 -2.273438 3.84375 -2.265625 L 2.78125 -1.125 C 2.769531 -1.113281 2.773438 -1.101562 2.796875 -1.09375 L 3.640625 -0.296875 C 3.804688 -0.128906 3.992188 -0.046875 4.203125 -0.046875 C 4.410156 -0.046875 4.597656 -0.132812 4.765625 -0.3125 C 4.929688 -0.5 5.007812 -0.695312 5 -0.90625 C 5 -1.113281 4.910156 -1.300781 4.734375 -1.46875 Z M 3.890625 -2.265625 "/></g></g></g><g fill="#000000" fill-opacity="1"><g transform="translate(123.965609, 175.167907)"><g><path d="M 0.546875 0.375 C 0.523438 0.363281 0.515625 0.34375 0.515625 0.3125 C 0.515625 0.289062 0.523438 0.265625 0.546875 0.234375 L 3.1875 -3.609375 C 3.207031 -3.640625 3.226562 -3.65625 3.25 -3.65625 C 3.269531 -3.664062 3.289062 -3.664062 3.3125 -3.65625 L 3.703125 -3.390625 C 3.734375 -3.367188 3.75 -3.34375 3.75 -3.3125 C 3.757812 -3.289062 3.753906 -3.265625 3.734375 -3.234375 L 1.09375 0.609375 C 1.070312 0.640625 1.046875 0.65625 1.015625 0.65625 C 0.992188 0.664062 0.96875 0.660156 0.9375 0.640625 Z M 0.546875 0.375 "/></g></g></g><g fill="#000000" fill-opacity="1"><g transform="translate(128.669535, 178.162269)"><g><path d="M 0.609375 0.28125 C 0.578125 0.269531 0.554688 0.25 0.546875 0.21875 C 0.546875 0.195312 0.550781 0.175781 0.5625 0.15625 L 2.5625 -4.078125 C 2.570312 -4.097656 2.585938 -4.113281 2.609375 -4.125 C 2.640625 -4.144531 2.671875 -4.148438 2.703125 -4.140625 L 3.109375 -3.9375 C 3.160156 -3.914062 3.179688 -3.878906 3.171875 -3.828125 L 3.640625 0.21875 C 3.648438 0.226562 3.65625 0.234375 3.65625 0.234375 C 3.664062 0.234375 3.675781 0.222656 3.6875 0.203125 L 5.140625 -2.875 C 5.148438 -2.894531 5.171875 -2.910156 5.203125 -2.921875 C 5.234375 -2.929688 5.257812 -2.929688 5.28125 -2.921875 L 5.71875 -2.71875 C 5.738281 -2.695312 5.75 -2.671875 5.75 -2.640625 C 5.757812 -2.617188 5.757812 -2.597656 5.75 -2.578125 L 3.75 1.65625 C 3.738281 1.675781 3.71875 1.691406 3.6875 1.703125 C 3.664062 1.722656 3.644531 1.722656 3.625 1.703125 L 3.203125 1.515625 C 3.148438 1.484375 3.125 1.441406 3.125 1.390625 L 2.671875 -2.65625 C 2.660156 -2.664062 2.648438 -2.671875 2.640625 -2.671875 C 2.628906 -2.679688 2.617188 -2.675781 2.609375 -2.65625 L 1.171875 0.4375 C 1.160156 0.457031 1.140625 0.472656 1.109375 0.484375 C 1.085938 0.492188 1.0625 0.492188 1.03125 0.484375 Z M 0.609375 0.28125 "/></g></g></g><g fill="#000000" fill-opacity="1"><g transform="translate(136.504758, 181.438393)"><g><path d="M 2.0625 0.59375 C 1.738281 0.507812 1.460938 0.375 1.234375 0.1875 C 1.015625 0 0.867188 -0.226562 0.796875 -0.5 C 0.722656 -0.78125 0.726562 -1.078125 0.8125 -1.390625 L 1.265625 -3.140625 C 1.335938 -3.441406 1.472656 -3.691406 1.671875 -3.890625 C 1.867188 -4.085938 2.109375 -4.21875 2.390625 -4.28125 C 2.679688 -4.34375 2.988281 -4.332031 3.3125 -4.25 C 3.632812 -4.164062 3.90625 -4.03125 4.125 -3.84375 C 4.34375 -3.65625 4.488281 -3.429688 4.5625 -3.171875 C 4.644531 -2.910156 4.644531 -2.632812 4.5625 -2.34375 C 4.550781 -2.289062 4.507812 -2.265625 4.4375 -2.265625 L 4 -2.375 L 3.96875 -2.375 C 3.945312 -2.382812 3.929688 -2.390625 3.921875 -2.390625 C 3.910156 -2.398438 3.90625 -2.410156 3.90625 -2.421875 L 3.921875 -2.46875 C 3.992188 -2.757812 3.960938 -3.015625 3.828125 -3.234375 C 3.691406 -3.453125 3.472656 -3.601562 3.171875 -3.6875 C 2.867188 -3.757812 2.601562 -3.734375 2.375 -3.609375 C 2.144531 -3.484375 1.992188 -3.273438 1.921875 -2.984375 L 1.453125 -1.1875 C 1.378906 -0.894531 1.410156 -0.640625 1.546875 -0.421875 C 1.679688 -0.203125 1.898438 -0.0546875 2.203125 0.015625 C 2.503906 0.0976562 2.769531 0.078125 3 -0.046875 C 3.226562 -0.171875 3.378906 -0.378906 3.453125 -0.671875 C 3.460938 -0.703125 3.472656 -0.71875 3.484375 -0.71875 C 3.503906 -0.726562 3.53125 -0.734375 3.5625 -0.734375 L 4 -0.578125 C 4.070312 -0.554688 4.101562 -0.539062 4.09375 -0.53125 L 4.09375 -0.5 C 4.007812 -0.195312 3.867188 0.0507812 3.671875 0.25 C 3.484375 0.445312 3.25 0.570312 2.96875 0.625 C 2.6875 0.6875 2.382812 0.675781 2.0625 0.59375 Z M 2.0625 0.59375 "/></g></g></g><g fill="#000000" fill-opacity="1"><g transform="translate(144.313235, 183.057108)"><g><path d="M 0.671875 0.0625 C 0.640625 0.0625 0.613281 0.0507812 0.59375 0.03125 C 0.582031 0.0078125 0.582031 -0.015625 0.59375 -0.046875 L 1.046875 -4.703125 C 1.046875 -4.734375 1.054688 -4.753906 1.078125 -4.765625 C 1.097656 -4.785156 1.125 -4.796875 1.15625 -4.796875 L 1.625 -4.75 C 1.65625 -4.75 1.675781 -4.738281 1.6875 -4.71875 C 1.707031 -4.695312 1.71875 -4.671875 1.71875 -4.640625 L 1.265625 0.015625 C 1.253906 0.046875 1.238281 0.0664062 1.21875 0.078125 C 1.195312 0.0976562 1.171875 0.109375 1.140625 0.109375 Z M 0.671875 0.0625 "/></g></g></g><g fill="#000000" fill-opacity="1"><g transform="translate(149.858917, 183.403177)"><g><path d="M 1.8125 -0.09375 C 1.78125 -0.09375 1.753906 -0.101562 1.734375 -0.125 C 1.710938 -0.144531 1.703125 -0.171875 1.703125 -0.203125 L 1.59375 -2.140625 C 1.59375 -2.140625 1.585938 -2.148438 1.578125 -2.171875 L 0 -4.78125 C -0.0078125 -4.8125 -0.015625 -4.828125 -0.015625 -4.828125 C -0.015625 -4.878906 0.015625 -4.90625 0.078125 -4.90625 L 0.578125 -4.9375 C 0.628906 -4.9375 0.671875 -4.910156 0.703125 -4.859375 L 1.859375 -2.921875 C 1.878906 -2.898438 1.894531 -2.898438 1.90625 -2.921875 L 2.84375 -4.984375 C 2.875 -5.035156 2.914062 -5.0625 2.96875 -5.0625 L 3.484375 -5.09375 C 3.535156 -5.09375 3.5625 -5.066406 3.5625 -5.015625 L 3.546875 -4.96875 L 2.28125 -2.203125 C 2.269531 -2.179688 2.265625 -2.171875 2.265625 -2.171875 L 2.375 -0.234375 C 2.375 -0.203125 2.363281 -0.175781 2.34375 -0.15625 C 2.320312 -0.132812 2.296875 -0.125 2.265625 -0.125 Z M 1.8125 -0.09375 "/></g></g></g><g fill="#000000" fill-opacity="1"><g transform="translate(157.723999, 182.63931)"><g><path d="M 3.46875 -0.84375 C 3.414062 -0.832031 3.375 -0.847656 3.34375 -0.890625 L 2.90625 -1.578125 C 2.894531 -1.597656 2.882812 -1.609375 2.875 -1.609375 L 0.984375 -1.140625 C 0.972656 -1.140625 0.960938 -1.128906 0.953125 -1.109375 L 0.890625 -0.296875 C 0.890625 -0.242188 0.863281 -0.207031 0.8125 -0.1875 L 0.3125 -0.078125 C 0.238281 -0.0546875 0.207031 -0.09375 0.21875 -0.1875 L 0.5625 -5.078125 C 0.570312 -5.140625 0.609375 -5.175781 0.671875 -5.1875 L 1.28125 -5.34375 C 1.34375 -5.351562 1.390625 -5.335938 1.421875 -5.296875 L 4.015625 -1.109375 C 4.015625 -1.097656 4.019531 -1.082031 4.03125 -1.0625 C 4.039062 -1.007812 4.019531 -0.972656 3.96875 -0.953125 Z M 1 -1.75 C 1 -1.707031 1.003906 -1.691406 1.015625 -1.703125 L 2.59375 -2.078125 C 2.613281 -2.085938 2.617188 -2.109375 2.609375 -2.140625 L 1.203125 -4.484375 C 1.179688 -4.492188 1.164062 -4.5 1.15625 -4.5 C 1.144531 -4.5 1.144531 -4.492188 1.15625 -4.484375 Z M 1 -1.75 "/></g></g></g><g fill="#000000" fill-opacity="1"><g transform="translate(165.535089, 180.34129)"><g><path d="M 0.859375 -0.359375 C 0.722656 -0.304688 0.59375 -0.304688 0.46875 -0.359375 C 0.351562 -0.410156 0.269531 -0.5 0.21875 -0.625 C 0.164062 -0.75 0.164062 -0.867188 0.21875 -0.984375 C 0.269531 -1.109375 0.359375 -1.195312 0.484375 -1.25 C 0.597656 -1.300781 0.722656 -1.304688 0.859375 -1.265625 C 1.003906 -1.222656 1.101562 -1.140625 1.15625 -1.015625 C 1.207031 -0.890625 1.203125 -0.757812 1.140625 -0.625 C 1.085938 -0.5 0.992188 -0.410156 0.859375 -0.359375 Z M 0.859375 -0.359375 "/></g></g></g><g fill="#000000" fill-opacity="1"><g transform="translate(170.661301, 177.987545)"><g><path d="M 1.859375 -1.078125 C 1.578125 -0.898438 1.289062 -0.796875 1 -0.765625 C 0.707031 -0.742188 0.4375 -0.800781 0.1875 -0.9375 C -0.0625 -1.070312 -0.269531 -1.273438 -0.4375 -1.546875 L -1.375 -3.09375 C -1.539062 -3.363281 -1.625 -3.632812 -1.625 -3.90625 C -1.632812 -4.1875 -1.5625 -4.445312 -1.40625 -4.6875 C -1.25 -4.9375 -1.03125 -5.148438 -0.75 -5.328125 C -0.46875 -5.492188 -0.1875 -5.59375 0.09375 -5.625 C 0.382812 -5.65625 0.648438 -5.609375 0.890625 -5.484375 C 1.140625 -5.367188 1.34375 -5.179688 1.5 -4.921875 C 1.53125 -4.878906 1.515625 -4.832031 1.453125 -4.78125 L 1.078125 -4.53125 L 1.046875 -4.515625 C 1.035156 -4.503906 1.019531 -4.492188 1 -4.484375 C 0.976562 -4.484375 0.96875 -4.488281 0.96875 -4.5 L 0.9375 -4.53125 C 0.78125 -4.789062 0.570312 -4.945312 0.3125 -5 C 0.0625 -5.050781 -0.191406 -5 -0.453125 -4.84375 C -0.722656 -4.675781 -0.890625 -4.46875 -0.953125 -4.21875 C -1.015625 -3.96875 -0.96875 -3.710938 -0.8125 -3.453125 L 0.15625 -1.875 C 0.3125 -1.613281 0.515625 -1.457031 0.765625 -1.40625 C 1.015625 -1.351562 1.273438 -1.410156 1.546875 -1.578125 C 1.804688 -1.734375 1.96875 -1.9375 2.03125 -2.1875 C 2.101562 -2.4375 2.0625 -2.691406 1.90625 -2.953125 C 1.894531 -2.972656 1.894531 -2.992188 1.90625 -3.015625 C 1.914062 -3.035156 1.9375 -3.054688 1.96875 -3.078125 L 2.375 -3.28125 C 2.4375 -3.3125 2.472656 -3.328125 2.484375 -3.328125 L 2.5 -3.296875 C 2.65625 -3.023438 2.734375 -2.75 2.734375 -2.46875 C 2.742188 -2.195312 2.671875 -1.9375 2.515625 -1.6875 C 2.359375 -1.445312 2.140625 -1.242188 1.859375 -1.078125 Z M 1.859375 -1.078125 "/></g></g></g><g fill="#000000" fill-opacity="1"><g transform="translate(177.342163, 173.48216)"><g><path d="M 1.65625 -1.40625 C 1.40625 -1.175781 1.132812 -1.023438 0.84375 -0.953125 C 0.5625 -0.890625 0.28125 -0.898438 0 -0.984375 C -0.28125 -1.078125 -0.53125 -1.242188 -0.75 -1.484375 L -1.875 -2.734375 C -2.09375 -2.972656 -2.226562 -3.234375 -2.28125 -3.515625 C -2.34375 -3.804688 -2.320312 -4.085938 -2.21875 -4.359375 C -2.125 -4.628906 -1.953125 -4.878906 -1.703125 -5.109375 C -1.441406 -5.335938 -1.164062 -5.488281 -0.875 -5.5625 C -0.59375 -5.644531 -0.316406 -5.640625 -0.046875 -5.546875 C 0.222656 -5.453125 0.46875 -5.285156 0.6875 -5.046875 L 1.8125 -3.796875 C 2.03125 -3.554688 2.171875 -3.296875 2.234375 -3.015625 C 2.304688 -2.734375 2.289062 -2.453125 2.1875 -2.171875 C 2.09375 -1.890625 1.914062 -1.632812 1.65625 -1.40625 Z M 1.265625 -1.828125 C 1.492188 -2.035156 1.613281 -2.28125 1.625 -2.5625 C 1.644531 -2.851562 1.550781 -3.113281 1.34375 -3.34375 L 0.203125 -4.609375 C -0.015625 -4.847656 -0.265625 -4.972656 -0.546875 -4.984375 C -0.828125 -4.992188 -1.082031 -4.894531 -1.3125 -4.6875 C -1.550781 -4.46875 -1.675781 -4.222656 -1.6875 -3.953125 C -1.695312 -3.679688 -1.59375 -3.425781 -1.375 -3.1875 L -0.234375 -1.921875 C -0.0234375 -1.691406 0.210938 -1.5625 0.484375 -1.53125 C 0.765625 -1.507812 1.023438 -1.609375 1.265625 -1.828125 Z M 1.265625 -1.828125 "/></g></g></g><g fill="#000000" fill-opacity="1"><g transform="translate(183.181504, 167.744843)"><g><path d="M 0.40625 -0.546875 C 0.394531 -0.523438 0.375 -0.507812 0.34375 -0.5 C 0.3125 -0.5 0.28125 -0.507812 0.25 -0.53125 L -3.484375 -3.328125 C -3.503906 -3.347656 -3.515625 -3.375 -3.515625 -3.40625 C -3.523438 -3.4375 -3.523438 -3.460938 -3.515625 -3.484375 L -3.234375 -3.859375 C -3.203125 -3.898438 -3.15625 -3.921875 -3.09375 -3.921875 L -0.890625 -3.734375 C -0.859375 -3.710938 -0.847656 -3.722656 -0.859375 -3.765625 L -1.65625 -5.828125 C -1.675781 -5.890625 -1.671875 -5.941406 -1.640625 -5.984375 L -1.359375 -6.359375 C -1.347656 -6.378906 -1.320312 -6.390625 -1.28125 -6.390625 C -1.25 -6.390625 -1.222656 -6.378906 -1.203125 -6.359375 L 2.53125 -3.5625 C 2.5625 -3.539062 2.578125 -3.515625 2.578125 -3.484375 C 2.578125 -3.460938 2.570312 -3.441406 2.5625 -3.421875 L 2.28125 -3.046875 C 2.257812 -3.015625 2.234375 -3 2.203125 -3 C 2.179688 -3 2.15625 -3.007812 2.125 -3.03125 L -0.703125 -5.15625 C -0.722656 -5.164062 -0.734375 -5.164062 -0.734375 -5.15625 C -0.742188 -5.144531 -0.75 -5.132812 -0.75 -5.125 L -0.0625 -3.421875 C -0.0507812 -3.390625 -0.0625 -3.347656 -0.09375 -3.296875 L -0.234375 -3.125 C -0.265625 -3.082031 -0.300781 -3.054688 -0.34375 -3.046875 L -2.15625 -3.234375 C -2.175781 -3.234375 -2.1875 -3.226562 -2.1875 -3.21875 C -2.195312 -3.207031 -2.191406 -3.195312 -2.171875 -3.1875 L 0.65625 -1.0625 C 0.6875 -1.039062 0.703125 -1.015625 0.703125 -0.984375 C 0.710938 -0.960938 0.707031 -0.9375 0.6875 -0.90625 Z M 0.40625 -0.546875 "/></g></g></g></svg>