<svg xmlns="http://www.w3.org/2000/svg" xmlns:xlink="http://www.w3.org/1999/xlink" width="100" zoomAndPan="magnify" viewBox="0 0 75 74.999997" height="100" preserveAspectRatio="xMidYMid meet" version="1.0"><defs><g/><clipPath id="246484879a"><path d="M 19.371094 14 L 59.914062 14 L 59.914062 46.839844 L 19.371094 46.839844 Z M 19.371094 14 " clip-rule="nonzero"/></clipPath><clipPath id="6801da14ad"><path d="M 19.371094 21 L 23 21 L 23 24 L 19.371094 24 Z M 19.371094 21 " clip-rule="nonzero"/></clipPath><clipPath id="7c4dce79d4"><path d="M 57 20 L 59.914062 20 L 59.914062 22 L 57 22 Z M 57 20 " clip-rule="nonzero"/></clipPath></defs><g fill="#000000" fill-opacity="1"><g transform="translate(33.248901, 56.944142)"><g><path d="M 8.628906 -9.25 C 8.703125 -9.253906 8.777344 -9.28125 8.851562 -9.332031 C 9.027344 -9.410156 9.125 -9.589844 9.273438 -9.695312 C 9.472656 -9.800781 9.59375 -9.953125 9.769531 -10.082031 C 9.917969 -10.238281 9.964844 -10.441406 10.1875 -10.496094 C 10.234375 -10.648438 10.285156 -10.777344 10.460938 -10.78125 C 10.511719 -10.78125 10.558594 -10.832031 10.558594 -10.882812 C 10.632812 -11.0625 10.832031 -11.140625 10.878906 -11.292969 C 10.898438 -11.496094 11.023438 -11.625 11.09375 -11.777344 C 11.144531 -11.878906 11.164062 -11.980469 11.085938 -12.082031 C 11.0625 -12.105469 11.085938 -12.183594 11.136719 -12.183594 C 11.160156 -12.160156 11.1875 -12.160156 11.210938 -12.160156 C 11.261719 -12.160156 11.3125 -12.210938 11.335938 -12.261719 C 11.480469 -12.570312 11.601562 -12.875 11.71875 -13.179688 C 11.890625 -13.511719 11.957031 -13.839844 12.074219 -14.171875 C 12.195312 -14.476562 12.1875 -14.804688 12.308594 -15.109375 C 12.425781 -15.441406 12.265625 -15.792969 12.410156 -16.097656 C 12.4375 -16.125 12.410156 -16.171875 12.410156 -16.199219 C 12.332031 -16.296875 12.355469 -16.425781 12.328125 -16.523438 C 12.269531 -16.875 12.234375 -17.253906 11.949219 -17.527344 C 11.925781 -17.550781 11.925781 -17.574219 11.898438 -17.625 C 11.582031 -18.300781 10.539062 -18.628906 9.855469 -18.691406 C 9.78125 -18.6875 9.730469 -18.6875 9.652344 -18.6875 C 9.25 -18.675781 8.824219 -18.566406 8.421875 -18.558594 C 8.394531 -18.558594 8.394531 -18.53125 8.371094 -18.53125 C 7.242188 -18.230469 5.71875 -17.414062 4.929688 -16.585938 C 4.859375 -16.484375 4.707031 -16.40625 4.609375 -16.304688 C 4.386719 -16.070312 4.113281 -15.886719 3.917969 -15.605469 C 3.773438 -15.375 3.574219 -15.195312 3.453125 -14.992188 C 3.332031 -14.734375 3.082031 -14.605469 2.9375 -14.375 C 2.765625 -14.140625 2.59375 -13.9375 2.5 -13.65625 C 2.425781 -13.453125 2.304688 -13.273438 2.183594 -13.121094 C 1.984375 -12.914062 1.863281 -12.710938 1.765625 -12.480469 C 1.453125 -11.84375 1.265625 -11.132812 1.054688 -10.445312 C 1.03125 -10.417969 1.03125 -10.371094 1.058594 -10.34375 C 1.058594 -10.320312 1.109375 -10.296875 1.136719 -10.246094 C 1.132812 -10.296875 1.132812 -10.347656 1.15625 -10.371094 C 1.15625 -10.398438 1.15625 -10.398438 1.183594 -10.421875 C 1.183594 -10.398438 1.207031 -10.375 1.207031 -10.347656 C 1.210938 -10.296875 1.183594 -10.273438 1.136719 -10.246094 C 1.136719 -10.167969 1.140625 -10.09375 1.140625 -9.992188 C 1.140625 -9.941406 1.09375 -9.890625 1.042969 -9.863281 C 1.046875 -9.714844 1.023438 -9.5625 0.976562 -9.410156 C 0.835938 -9.003906 0.792969 -8.574219 0.703125 -8.140625 C 0.679688 -8.089844 0.679688 -8.015625 0.730469 -7.964844 C 0.832031 -8.019531 0.777344 -8.144531 0.828125 -8.21875 C 0.875 -8.269531 0.875 -8.320312 0.875 -8.398438 C 1.03125 -9.308594 1.554688 -10.683594 2.117188 -11.429688 C 2.144531 -11.480469 2.167969 -11.554688 2.214844 -11.605469 C 2.605469 -12.273438 3.019531 -12.9375 3.457031 -13.601562 C 3.578125 -13.808594 3.753906 -14.011719 3.875 -14.21875 C 3.921875 -14.320312 3.996094 -14.398438 4.070312 -14.449219 C 4.34375 -14.683594 4.484375 -15.0625 4.808594 -15.246094 C 4.859375 -15.273438 4.882812 -15.351562 4.90625 -15.425781 C 5.03125 -15.582031 5.175781 -15.734375 5.351562 -15.867188 C 5.425781 -15.917969 5.5 -15.96875 5.574219 -16.046875 C 5.773438 -16.203125 5.945312 -16.410156 6.167969 -16.539062 C 6.394531 -16.671875 6.566406 -16.824219 6.765625 -16.980469 C 6.914062 -17.109375 7.0625 -17.191406 7.210938 -17.269531 C 8.109375 -17.820312 8.960938 -18.089844 10.019531 -18.113281 C 10.199219 -18.09375 10.730469 -18.003906 10.832031 -17.855469 C 11.117188 -17.507812 11.28125 -17.082031 11.363281 -16.65625 C 11.453125 -16.125 11.386719 -15.621094 11.273438 -15.113281 C 11.023438 -13.898438 10.636719 -13.03125 10.109375 -11.882812 C 9.9375 -11.527344 9.796875 -11.167969 9.5 -10.910156 C 9.472656 -10.882812 9.476562 -10.835938 9.449219 -10.832031 C 9.230469 -10.550781 9.035156 -10.242188 8.789062 -9.984375 C 7.824219 -8.980469 6.503906 -8.269531 5.253906 -7.710938 C 5.152344 -7.683594 5.054688 -7.65625 5.003906 -7.582031 C 4.929688 -7.527344 4.777344 -7.574219 4.757812 -7.421875 C 4.804688 -7.425781 4.882812 -7.425781 4.933594 -7.425781 C 5.007812 -7.429688 5.085938 -7.429688 5.183594 -7.484375 C 5.332031 -7.5625 5.535156 -7.644531 5.707031 -7.722656 C 6.332031 -7.988281 6.957031 -8.28125 7.53125 -8.671875 C 7.652344 -8.773438 7.777344 -8.851562 7.925781 -8.933594 C 7.976562 -8.984375 8.050781 -9.035156 8.101562 -9.085938 C 8.421875 -9.421875 8.820312 -9.660156 9.089844 -9.992188 C 9.113281 -10.019531 9.164062 -10.019531 9.191406 -10.046875 C 9.1875 -10.097656 9.210938 -10.148438 9.289062 -10.148438 C 9.289062 -10.175781 9.3125 -10.199219 9.3125 -10.226562 C 9.363281 -10.148438 9.289062 -10.175781 9.261719 -10.148438 C 9.265625 -10.097656 9.242188 -10.046875 9.191406 -10.046875 C 9.191406 -9.96875 9.167969 -9.894531 9.117188 -9.84375 C 8.945312 -9.636719 8.75 -9.480469 8.628906 -9.25 Z M 1.324219 -10.753906 C 1.300781 -10.703125 1.277344 -10.628906 1.28125 -10.578125 C 1.253906 -10.601562 1.226562 -10.625 1.226562 -10.652344 C 1.25 -10.703125 1.277344 -10.726562 1.328125 -10.730469 C 1.324219 -10.804688 1.324219 -10.878906 1.320312 -10.929688 C 1.320312 -10.957031 1.347656 -10.957031 1.371094 -10.980469 C 1.371094 -10.957031 1.398438 -10.933594 1.398438 -10.90625 C 1.398438 -10.832031 1.375 -10.78125 1.324219 -10.753906 Z M 10.226562 -11.128906 C 10.046875 -11.175781 9.996094 -11.25 10.042969 -11.375 C 10.09375 -11.429688 10.140625 -11.503906 10.214844 -11.53125 C 10.214844 -11.683594 10.285156 -11.835938 10.410156 -11.941406 C 10.410156 -11.964844 10.433594 -11.964844 10.460938 -11.964844 C 10.511719 -11.96875 10.535156 -11.941406 10.558594 -11.96875 C 10.609375 -12.019531 10.609375 -12.097656 10.65625 -12.121094 C 10.808594 -12.226562 10.777344 -12.402344 10.824219 -12.53125 C 10.875 -12.605469 10.648438 -12.574219 10.746094 -12.703125 C 10.917969 -12.933594 10.960938 -13.265625 11.03125 -13.542969 C 11.148438 -13.898438 11.214844 -14.28125 11.332031 -14.636719 C 11.355469 -14.761719 11.378906 -14.9375 11.554688 -14.992188 C 11.632812 -14.894531 11.582031 -14.792969 11.558594 -14.691406 C 11.46875 -14.234375 11.378906 -13.777344 11.210938 -13.34375 C 11.164062 -13.21875 11.265625 -13.195312 11.316406 -13.121094 C 11.269531 -13.070312 11.21875 -13.019531 11.144531 -12.941406 C 11.09375 -12.890625 11.070312 -12.8125 11.046875 -12.738281 C 11.050781 -12.585938 11.105469 -12.433594 10.90625 -12.378906 C 10.984375 -12.230469 10.835938 -12.125 10.835938 -12.023438 C 10.839844 -11.875 10.792969 -11.796875 10.71875 -11.695312 C 10.644531 -11.542969 10.570312 -11.488281 10.46875 -11.488281 C 10.394531 -11.484375 10.34375 -11.507812 10.265625 -11.53125 C 10.242188 -11.53125 10.214844 -11.53125 10.214844 -11.53125 C 10.21875 -11.40625 10.222656 -11.253906 10.226562 -11.128906 C 10.402344 -11.105469 10.402344 -11.105469 10.355469 -11.003906 C 10.332031 -10.953125 10.332031 -10.929688 10.304688 -10.902344 C 10.230469 -10.875 10.207031 -10.875 10.179688 -10.875 C 10.179688 -10.875 10.15625 -10.898438 10.15625 -10.925781 C 10.128906 -11 10.226562 -11.050781 10.226562 -11.128906 Z M 11.539062 -13.277344 C 11.539062 -13.300781 11.566406 -13.328125 11.589844 -13.355469 C 11.640625 -13.328125 11.617188 -13.226562 11.59375 -13.226562 C 11.566406 -13.226562 11.542969 -13.253906 11.539062 -13.277344 Z M 1.417969 -11.210938 C 1.417969 -11.234375 1.441406 -11.261719 1.464844 -11.289062 C 1.464844 -11.261719 1.492188 -11.210938 1.46875 -11.210938 C 1.46875 -11.160156 1.441406 -11.160156 1.417969 -11.210938 Z M 10.375 -11.28125 L 10.347656 -11.28125 L 10.375 -11.308594 Z M 1.535156 -11.492188 L 1.5625 -11.492188 L 1.539062 -11.464844 Z M 9.433594 -10.378906 L 9.410156 -10.378906 L 9.410156 -10.402344 Z M 0.199219 -4.621094 C 0.195312 -4.824219 0.164062 -5.050781 0.234375 -5.355469 C 0.292969 -5.054688 0.296875 -4.851562 0.25 -4.675781 C 0.25 -4.648438 0.226562 -4.621094 0.199219 -4.621094 C 0.203125 -4.570312 0.203125 -4.546875 0.203125 -4.523438 C 0.304688 -4.421875 0.304688 -4.421875 0.207031 -4.320312 C 0.222656 -3.613281 0.214844 -2.882812 0.230469 -2.148438 C 0.152344 -2.148438 0.152344 -2.199219 0.152344 -2.25 C 0.136719 -2.878906 0.125 -3.484375 0.109375 -4.117188 C 0.109375 -4.214844 0.105469 -4.292969 0.207031 -4.320312 C 0.207031 -4.394531 0.203125 -4.445312 0.203125 -4.523438 C 0.152344 -4.519531 0.101562 -4.519531 0.0507812 -4.492188 C 0.0273438 -4.46875 0.00390625 -4.417969 0.00390625 -4.367188 C 0.0117188 -3.988281 0.0195312 -3.609375 0.0273438 -3.257812 C 0.03125 -3.15625 0.0585938 -3.054688 0.0117188 -2.953125 C -0.0390625 -2.824219 -0.0859375 -2.699219 -0.0078125 -2.546875 C -0.0546875 -2.394531 -0.0234375 -2.269531 -0.046875 -2.117188 C -0.0390625 -1.691406 0.0742188 -1.164062 0.210938 -0.761719 C 0.238281 -0.710938 0.261719 -0.636719 0.289062 -0.585938 C 0.371094 -0.285156 0.453125 0.015625 0.6875 0.289062 C 0.816406 0.4375 0.921875 0.636719 1.054688 0.835938 C 1.132812 0.933594 1.183594 1.007812 1.261719 1.109375 C 1.289062 1.15625 1.335938 1.15625 1.363281 1.15625 C 1.414062 1.15625 1.4375 1.152344 1.488281 1.128906 C 1.613281 1.074219 1.710938 0.996094 1.785156 0.84375 C 1.832031 0.714844 1.90625 0.613281 1.980469 0.511719 C 2.128906 0.355469 2.199219 0.203125 2.246094 0 C 2.292969 -0.175781 2.363281 -0.355469 2.460938 -0.507812 C 2.558594 -0.664062 2.554688 -0.890625 2.601562 -1.066406 C 2.625 -1.117188 2.648438 -1.167969 2.671875 -1.195312 C 2.796875 -1.296875 2.792969 -1.449219 2.839844 -1.601562 C 2.890625 -1.730469 2.859375 -1.878906 2.90625 -2.007812 C 2.929688 -2.160156 3.003906 -2.289062 3.050781 -2.414062 C 3.097656 -2.515625 3.121094 -2.59375 3.144531 -2.695312 C 3.28125 -3.351562 3.46875 -4.011719 3.65625 -4.675781 C 3.703125 -4.851562 3.800781 -5.003906 3.769531 -5.179688 C 3.769531 -5.28125 3.792969 -5.359375 3.84375 -5.410156 C 3.964844 -5.5625 4.011719 -5.742188 4.03125 -5.894531 C 4.054688 -6.046875 4.078125 -6.148438 4.125 -6.273438 C 4.21875 -6.65625 4.335938 -7.035156 4.453125 -7.417969 C 4.453125 -7.46875 4.476562 -7.519531 4.476562 -7.570312 C 4.445312 -7.820312 4.566406 -8.074219 4.636719 -8.304688 C 4.726562 -8.734375 4.816406 -9.191406 4.910156 -9.621094 C 5.003906 -9.976562 5.042969 -10.355469 5.113281 -10.710938 C 5.179688 -11.066406 5.246094 -11.445312 5.414062 -11.828125 C 5.488281 -12.007812 5.507812 -12.261719 5.527344 -12.460938 C 5.550781 -12.539062 5.523438 -12.589844 5.496094 -12.664062 C 5.445312 -12.839844 5.316406 -12.960938 5.1875 -13.0625 C 5.109375 -13.132812 5.007812 -13.15625 4.90625 -13.15625 C 4.703125 -13.152344 4.503906 -13.019531 4.460938 -12.792969 C 4.390625 -12.460938 4.375 -12.109375 4.28125 -11.753906 C 4.210938 -11.472656 4.195312 -11.171875 4.125 -10.867188 C 4.058594 -10.4375 4.015625 -10.007812 3.925781 -9.601562 C 3.902344 -9.472656 3.878906 -9.371094 3.855469 -9.269531 C 3.835938 -9.042969 3.792969 -8.816406 3.746094 -8.613281 C 3.582031 -8.003906 3.417969 -7.394531 3.253906 -6.808594 C 3.070312 -6.097656 2.90625 -5.414062 2.671875 -4.726562 C 2.410156 -3.941406 2.203125 -3.128906 2.019531 -2.316406 C 1.855469 -1.679688 1.617188 -1.070312 1.378906 -0.460938 C 1.355469 -0.410156 1.332031 -0.332031 1.304688 -0.28125 C 1.207031 -0.179688 1.132812 -0.101562 1.058594 -0.0976562 C 1.007812 -0.0976562 0.929688 -0.148438 0.851562 -0.296875 C 0.796875 -0.445312 0.644531 -0.59375 0.765625 -0.773438 C 0.738281 -0.898438 0.683594 -1 0.683594 -1.101562 C 0.675781 -1.453125 0.492188 -1.753906 0.535156 -2.105469 C 0.402344 -2.332031 0.445312 -2.609375 0.414062 -2.859375 C 0.40625 -3.316406 0.394531 -3.769531 0.410156 -4.222656 C 0.40625 -4.449219 0.351562 -4.703125 0.472656 -4.929688 C 0.496094 -5.007812 0.46875 -5.109375 0.464844 -5.207031 C 0.460938 -5.308594 0.433594 -5.410156 0.484375 -5.511719 C 0.578125 -5.714844 0.523438 -5.941406 0.542969 -6.167969 C 0.542969 -6.269531 0.539062 -6.394531 0.5625 -6.496094 C 0.65625 -6.777344 0.625 -7.078125 0.695312 -7.359375 C 0.742188 -7.460938 0.738281 -7.585938 0.664062 -7.6875 C 0.585938 -7.632812 0.613281 -7.558594 0.617188 -7.484375 C 0.617188 -7.40625 0.59375 -7.355469 0.519531 -7.328125 C 0.496094 -7.152344 0.550781 -6.953125 0.457031 -6.773438 C 0.464844 -6.394531 0.296875 -6.039062 0.355469 -5.636719 C 0.355469 -5.585938 0.382812 -5.484375 0.285156 -5.433594 C 0.226562 -5.632812 0.300781 -5.835938 0.21875 -6.035156 C 0.148438 -5.910156 0.175781 -5.808594 0.175781 -5.683594 C 0.152344 -5.605469 0.179688 -5.53125 0.15625 -5.453125 C 0.0351562 -5.199219 0.117188 -4.949219 0.0976562 -4.695312 C 0.0976562 -4.671875 0.175781 -4.648438 0.199219 -4.621094 Z M 2.925781 -3.523438 C 2.925781 -3.445312 2.902344 -3.421875 2.828125 -3.417969 C 2.855469 -3.21875 2.730469 -3.140625 2.609375 -3.035156 C 2.582031 -3.035156 2.53125 -3.007812 2.507812 -3.007812 C 2.457031 -3.007812 2.429688 -3.03125 2.429688 -3.03125 C 2.378906 -3.082031 2.429688 -3.132812 2.429688 -3.15625 C 2.476562 -3.234375 2.421875 -3.359375 2.546875 -3.414062 C 2.546875 -3.488281 2.570312 -3.566406 2.566406 -3.691406 C 2.671875 -3.566406 2.671875 -3.464844 2.546875 -3.414062 C 2.574219 -3.335938 2.601562 -3.3125 2.652344 -3.3125 C 2.675781 -3.316406 2.703125 -3.316406 2.726562 -3.339844 C 2.75 -3.367188 2.800781 -3.394531 2.851562 -3.417969 C 2.851562 -3.46875 2.875 -3.496094 2.925781 -3.496094 C 2.949219 -3.523438 2.949219 -3.546875 2.972656 -3.574219 C 3.027344 -3.523438 2.949219 -3.523438 2.925781 -3.523438 Z M 2.035156 -0.472656 C 2.03125 -0.523438 2.03125 -0.574219 2.03125 -0.601562 C 2.054688 -0.625 2.054688 -0.625 2.078125 -0.652344 C 2.082031 -0.625 2.105469 -0.601562 2.105469 -0.578125 C 2.082031 -0.550781 2.058594 -0.523438 2.03125 -0.5 C 2.035156 -0.398438 2.035156 -0.324219 1.9375 -0.296875 C 1.9375 -0.246094 1.914062 -0.21875 1.890625 -0.144531 C 1.890625 -0.167969 1.839844 -0.191406 1.863281 -0.191406 C 1.886719 -0.242188 1.910156 -0.269531 1.9375 -0.296875 C 1.933594 -0.347656 1.933594 -0.421875 1.933594 -0.496094 C 1.90625 -0.472656 1.859375 -0.445312 1.808594 -0.417969 C 1.78125 -0.394531 1.734375 -0.390625 1.679688 -0.414062 C 1.679688 -0.441406 1.65625 -0.492188 1.652344 -0.515625 C 1.675781 -0.59375 1.726562 -0.695312 1.75 -0.769531 C 1.773438 -0.871094 1.847656 -0.875 1.921875 -0.875 C 1.898438 -0.925781 1.894531 -0.976562 1.871094 -1.050781 C 1.945312 -1.078125 1.996094 -1.078125 2.070312 -1.082031 C 2.144531 -1.082031 2.222656 -1.082031 2.273438 -1.035156 C 2.226562 -0.90625 2.125 -0.878906 2 -0.878906 C 1.972656 -0.875 1.949219 -0.875 1.921875 -0.875 C 1.875 -0.773438 1.878906 -0.671875 1.929688 -0.574219 C 1.929688 -0.546875 1.929688 -0.523438 1.933594 -0.472656 C 1.957031 -0.472656 2.007812 -0.472656 2.035156 -0.472656 Z M 3.910156 -8.085938 C 3.90625 -8.160156 3.90625 -8.261719 3.925781 -8.390625 C 4.007812 -8.238281 4.035156 -8.140625 3.882812 -8.085938 C 3.886719 -7.933594 3.941406 -7.785156 3.84375 -7.628906 C 3.792969 -7.628906 3.792969 -7.628906 3.765625 -7.628906 C 3.816406 -7.78125 3.734375 -7.957031 3.910156 -8.085938 Z M 3.183594 -5.445312 C 3.183594 -5.472656 3.210938 -5.496094 3.207031 -5.523438 C 3.285156 -5.449219 3.210938 -5.472656 3.183594 -5.472656 C 3.191406 -5.242188 3.191406 -5.242188 3.320312 -5.09375 C 3.292969 -5.070312 3.242188 -5.070312 3.195312 -5.066406 C 3.144531 -5.066406 3.09375 -5.066406 3.042969 -5.089844 C 3.0625 -5.214844 3.113281 -5.316406 3.132812 -5.445312 C 3.132812 -5.445312 3.160156 -5.445312 3.183594 -5.445312 Z M 3.449219 -6.132812 C 3.421875 -6.15625 3.394531 -6.183594 3.371094 -6.179688 C 3.339844 -6.359375 3.3125 -6.507812 3.4375 -6.636719 C 3.507812 -6.738281 3.53125 -6.839844 3.554688 -6.941406 C 3.578125 -6.992188 3.65625 -7.019531 3.679688 -6.972656 C 3.683594 -6.945312 3.707031 -6.921875 3.707031 -6.894531 C 3.613281 -6.640625 3.492188 -6.410156 3.449219 -6.132812 C 3.472656 -6.132812 3.5 -6.109375 3.523438 -6.109375 C 3.449219 -6.03125 3.472656 -6.109375 3.449219 -6.132812 Z M 2.605469 -2.027344 C 2.507812 -1.796875 2.308594 -1.714844 2.082031 -1.660156 C 2.054688 -1.710938 2.054688 -1.710938 2.054688 -1.738281 C 2.105469 -1.863281 2.28125 -1.867188 2.351562 -2.019531 C 2.378906 -2.046875 2.402344 -2.070312 2.453125 -2.074219 C 2.503906 -2.074219 2.578125 -2.050781 2.605469 -2.027344 Z M 3.089844 -3.980469 C 3.066406 -3.902344 3.042969 -3.851562 3.019531 -3.800781 C 2.996094 -3.75 2.945312 -3.699219 2.894531 -3.722656 C 2.820312 -3.746094 2.742188 -3.796875 2.691406 -3.84375 C 2.664062 -3.84375 2.664062 -3.894531 2.664062 -3.921875 C 2.664062 -3.945312 2.714844 -3.972656 2.714844 -3.972656 C 2.761719 -3.972656 2.789062 -3.972656 2.839844 -3.972656 C 2.914062 -3.976562 2.992188 -3.976562 3.089844 -3.980469 Z M 3.296875 -6.054688 C 3.375 -5.929688 3.402344 -5.855469 3.429688 -5.777344 C 3.355469 -5.753906 3.28125 -5.726562 3.230469 -5.675781 C 3.152344 -5.824219 3.277344 -5.875 3.296875 -6.054688 Z M 2.902344 -4.554688 C 2.902344 -4.53125 2.902344 -4.503906 2.902344 -4.503906 C 2.902344 -4.480469 2.878906 -4.453125 2.878906 -4.429688 C 2.855469 -4.453125 2.828125 -4.453125 2.828125 -4.480469 C 2.800781 -4.503906 2.828125 -4.503906 2.828125 -4.53125 C 2.828125 -4.554688 2.824219 -4.605469 2.875 -4.605469 C 2.875 -4.605469 2.902344 -4.582031 2.902344 -4.554688 Z M 3.023438 -4.8125 C 3.074219 -4.8125 3.125 -4.789062 3.148438 -4.761719 C 3.175781 -4.738281 3.152344 -4.714844 3.125 -4.6875 C 3.101562 -4.6875 3.074219 -4.6875 3.074219 -4.6875 C 3.023438 -4.710938 3 -4.761719 3.023438 -4.8125 Z M 4.070312 -8.695312 C 4.046875 -8.667969 4.046875 -8.644531 4.046875 -8.621094 C 4.023438 -8.644531 3.996094 -8.667969 3.996094 -8.695312 C 3.996094 -8.769531 4.019531 -8.796875 4.019531 -8.820312 C 4.042969 -8.796875 4.046875 -8.769531 4.070312 -8.746094 C 4.070312 -8.746094 4.070312 -8.71875 4.070312 -8.695312 Z M 1.792969 0.0351562 C 1.816406 0.0625 1.84375 0.0859375 1.84375 0.0859375 C 1.820312 0.109375 1.820312 0.136719 1.796875 0.160156 C 1.792969 0.113281 1.792969 0.0859375 1.792969 0.0351562 Z M 1.96875 -1.203125 C 1.964844 -1.230469 1.992188 -1.253906 2.015625 -1.257812 C 2.042969 -1.257812 2.042969 -1.230469 2.042969 -1.179688 C 2.019531 -1.179688 1.992188 -1.203125 1.96875 -1.203125 Z M 2.347656 -2.195312 C 2.324219 -2.171875 2.296875 -2.171875 2.273438 -2.144531 C 2.273438 -2.144531 2.246094 -2.195312 2.222656 -2.195312 C 2.273438 -2.195312 2.296875 -2.195312 2.347656 -2.195312 Z M 2.566406 -2.605469 C 2.59375 -2.605469 2.59375 -2.582031 2.617188 -2.582031 C 2.59375 -2.554688 2.566406 -2.554688 2.542969 -2.554688 C 2.542969 -2.554688 2.515625 -2.554688 2.515625 -2.578125 C 2.515625 -2.578125 2.542969 -2.605469 2.566406 -2.605469 Z M 3.75 -7.273438 C 3.777344 -7.25 3.800781 -7.226562 3.800781 -7.226562 C 3.800781 -7.199219 3.777344 -7.175781 3.753906 -7.148438 C 3.753906 -7.175781 3.726562 -7.171875 3.726562 -7.199219 C 3.75 -7.226562 3.75 -7.25 3.75 -7.273438 Z M 2.785156 -4.148438 L 2.785156 -4.125 L 2.757812 -4.148438 Z M 1.390625 0.0429688 L 1.4375 0.0429688 Z M 2.320312 -2.398438 L 2.34375 -2.398438 L 2.320312 -2.375 Z M 2.339844 -2.574219 L 2.316406 -2.574219 L 2.3125 -2.601562 Z M 3.886719 -6.773438 L 3.863281 -6.773438 L 3.886719 -6.796875 Z M 8.628906 -9.25 C 8.601562 -9.25 8.578125 -9.25 8.550781 -9.25 C 8.5 -9.246094 8.476562 -9.246094 8.453125 -9.195312 C 8.453125 -9.171875 8.453125 -9.144531 8.453125 -9.121094 C 8.453125 -9.09375 8.503906 -9.097656 8.527344 -9.121094 C 8.578125 -9.148438 8.601562 -9.199219 8.628906 -9.25 Z M 1.042969 -9.863281 C 1.042969 -9.941406 1.0625 -10.042969 0.988281 -10.117188 C 0.964844 -9.964844 0.964844 -9.964844 1.042969 -9.863281 Z M 0.945312 -9.660156 C 0.921875 -9.683594 0.921875 -9.710938 0.894531 -9.734375 C 0.894531 -9.683594 0.894531 -9.660156 0.898438 -9.609375 C 0.921875 -9.636719 0.921875 -9.636719 0.945312 -9.660156 Z M 0.421875 -7.125 C 0.398438 -7.148438 0.394531 -7.175781 0.371094 -7.199219 C 0.371094 -7.148438 0.371094 -7.125 0.371094 -7.074219 C 0.398438 -7.101562 0.398438 -7.125 0.421875 -7.125 Z M 8.230469 -8.964844 C 8.230469 -8.9375 8.128906 -8.960938 8.207031 -8.886719 C 8.207031 -8.914062 8.230469 -8.9375 8.230469 -8.964844 Z M 8.230469 -8.964844 C 8.253906 -8.988281 8.332031 -8.964844 8.277344 -9.015625 C 8.253906 -9.015625 8.253906 -8.988281 8.230469 -8.964844 Z M 0.519531 -7.328125 C 0.492188 -7.355469 0.515625 -7.429688 0.441406 -7.378906 C 0.46875 -7.355469 0.492188 -7.355469 0.519531 -7.328125 Z M 0.519531 -7.328125 "/></g></g></g><g clip-path="url(#246484879a)"><path fill="#000000" d="M 38.113281 14.757812 L 38.082031 14.757812 C 37.832031 14.734375 37.613281 15.070312 37.429688 15.761719 C 35.972656 22.019531 34.203125 28.816406 32.121094 36.15625 L 25.214844 30.285156 C 23.207031 28.648438 21.972656 27.707031 21.515625 27.46875 C 20.746094 26.988281 20.1875 26.898438 19.839844 27.199219 C 19.535156 27.441406 19.511719 27.941406 19.769531 28.703125 C 20.285156 30.152344 21.800781 33.1875 24.304688 37.804688 C 24.65625 38.601562 26.332031 41.355469 29.339844 46.066406 C 29.140625 45.191406 26.652344 40.234375 21.867188 31.191406 C 21.226562 29.890625 20.734375 28.792969 20.386719 27.902344 C 20.824219 28.007812 21.890625 28.746094 23.589844 30.125 L 31.765625 37.007812 C 31.96875 37.175781 32.199219 37.21875 32.460938 37.132812 C 33.695312 34.589844 35.671875 27.441406 38.398438 15.691406 C 39.171875 16.835938 41.480469 23.085938 45.324219 34.449219 C 45.738281 35.53125 46.070312 36.144531 46.3125 36.28125 C 46.511719 36.445312 47.175781 36.019531 48.300781 35.011719 C 52.898438 31.070312 56.214844 28.078125 58.246094 26.035156 C 57.660156 27.5625 56.996094 29.101562 56.261719 30.65625 C 56.332031 30.585938 54.855469 33.394531 51.832031 39.085938 C 50.902344 40.878906 50.109375 42.46875 49.457031 43.847656 C 49.058594 44.660156 48.792969 45.660156 48.660156 46.84375 C 48.953125 46.027344 49.300781 45.226562 49.703125 44.441406 C 52.25 40.148438 54.703125 35.695312 57.0625 31.078125 C 57.726562 29.667969 58.351562 28.234375 58.933594 26.777344 C 59.226562 26.058594 59.324219 25.613281 59.222656 25.441406 C 58.886719 24.75 58.285156 24.777344 57.417969 25.523438 C 55.214844 27.8125 51.53125 31.105469 46.371094 35.402344 C 44.230469 28.433594 42.347656 22.875 40.71875 18.734375 C 39.636719 15.898438 38.769531 14.574219 38.113281 14.757812 " fill-opacity="1" fill-rule="nonzero"/></g><g clip-path="url(#6801da14ad)"><path fill="#000000" d="M 21.078125 22.234375 L 21.085938 22.234375 C 21.417969 22.242188 21.648438 22.296875 21.777344 22.40625 C 21.835938 22.445312 21.875 22.507812 21.894531 22.601562 C 21.902344 22.6875 21.898438 22.757812 21.875 22.8125 C 21.832031 22.902344 21.785156 22.96875 21.726562 23.011719 C 21.597656 23.121094 21.46875 23.210938 21.339844 23.28125 C 21.210938 23.355469 21.070312 23.417969 20.921875 23.46875 C 20.757812 23.53125 20.636719 23.558594 20.558594 23.554688 C 20.480469 23.554688 20.402344 23.535156 20.324219 23.496094 C 20.273438 23.46875 20.210938 23.402344 20.140625 23.308594 C 20.089844 23.234375 20.027344 23.121094 19.957031 22.96875 C 19.933594 22.882812 19.933594 22.800781 19.964844 22.714844 C 20.023438 22.566406 20.148438 22.453125 20.34375 22.371094 C 20.566406 22.277344 20.8125 22.230469 21.078125 22.234375 M 21.347656 21.839844 L 21.339844 21.839844 C 21.03125 21.835938 20.726562 21.90625 20.417969 22.046875 C 20.136719 22.191406 19.960938 22.359375 19.898438 22.550781 C 19.878906 22.613281 19.871094 22.671875 19.871094 22.730469 C 19.871094 22.800781 19.886719 22.863281 19.917969 22.921875 C 19.902344 22.921875 19.898438 22.914062 19.894531 22.898438 L 19.890625 22.914062 C 19.886719 22.96875 19.890625 23.035156 19.902344 23.121094 C 19.921875 23.265625 19.964844 23.398438 20.035156 23.523438 C 20.15625 23.746094 20.371094 23.863281 20.679688 23.875 C 21.0625 23.851562 21.441406 23.742188 21.816406 23.535156 C 22.140625 23.355469 22.339844 23.144531 22.414062 22.90625 C 22.492188 22.628906 22.421875 22.371094 22.207031 22.128906 C 22.015625 21.9375 21.726562 21.839844 21.347656 21.839844 " fill-opacity="1" fill-rule="nonzero"/></g><path fill="#000000" d="M 37.800781 9.324219 L 37.8125 9.324219 C 38.082031 9.328125 38.355469 9.378906 38.628906 9.464844 C 38.730469 9.5 38.824219 9.546875 38.90625 9.605469 C 38.96875 9.652344 39.003906 9.699219 39.007812 9.742188 C 39.027344 9.804688 39.003906 9.894531 38.941406 10.003906 C 38.882812 10.097656 38.800781 10.1875 38.695312 10.269531 C 38.503906 10.414062 38.292969 10.484375 38.058594 10.480469 C 37.941406 10.480469 37.84375 10.464844 37.769531 10.4375 C 37.671875 10.402344 37.578125 10.34375 37.492188 10.261719 C 37.421875 10.191406 37.355469 10.101562 37.296875 9.992188 C 37.265625 9.949219 37.195312 9.785156 37.078125 9.503906 C 37.203125 9.382812 37.441406 9.324219 37.800781 9.324219 M 38.179688 9 L 38.164062 9 C 37.910156 9 37.671875 9.035156 37.457031 9.109375 C 37.253906 9.179688 37.113281 9.269531 37.035156 9.382812 C 37.011719 9.292969 36.984375 9.238281 36.953125 9.21875 L 36.941406 9.15625 C 36.917969 9.265625 36.910156 9.40625 36.921875 9.578125 C 36.898438 9.632812 36.886719 9.714844 36.890625 9.828125 L 36.890625 9.847656 C 36.890625 9.78125 36.90625 9.726562 36.929688 9.683594 C 36.984375 10.128906 37.140625 10.460938 37.398438 10.675781 C 37.527344 10.777344 37.660156 10.847656 37.785156 10.882812 C 37.921875 10.925781 38.0625 10.945312 38.207031 10.945312 C 38.570312 10.941406 38.890625 10.824219 39.175781 10.589844 C 39.421875 10.367188 39.539062 10.109375 39.535156 9.816406 C 39.5 9.289062 39.046875 9.015625 38.179688 9 " fill-opacity="1" fill-rule="nonzero"/><g clip-path="url(#7c4dce79d4)"><path fill="#000000" d="M 57.980469 20.03125 L 57.972656 20.050781 C 57.820312 20.398438 57.753906 20.726562 57.765625 21.035156 C 57.789062 21.277344 57.902344 21.464844 58.109375 21.601562 C 58.367188 21.761719 58.664062 21.804688 58.996094 21.726562 C 59.15625 21.683594 59.3125 21.605469 59.457031 21.496094 C 59.589844 21.398438 59.6875 21.289062 59.753906 21.171875 C 59.851562 20.988281 59.855469 20.8125 59.757812 20.644531 C 59.671875 20.5 59.523438 20.425781 59.304688 20.429688 C 59.214844 20.429688 59.097656 20.457031 58.953125 20.515625 C 58.878906 20.542969 58.671875 20.65625 58.335938 20.855469 C 58.480469 20.785156 58.664062 20.726562 58.886719 20.675781 C 59.09375 20.640625 59.246094 20.632812 59.335938 20.660156 C 59.4375 20.683594 59.492188 20.730469 59.503906 20.800781 C 59.503906 20.902344 59.445312 20.996094 59.332031 21.085938 C 59.199219 21.195312 58.996094 21.273438 58.714844 21.324219 C 58.535156 21.351562 58.378906 21.328125 58.25 21.25 C 58.148438 21.1875 58.082031 21.089844 58.050781 20.957031 C 58.035156 20.882812 58.027344 20.792969 58.023438 20.6875 C 58.019531 20.628906 58.015625 20.5 58.015625 20.304688 L 58.007812 20.125 C 58.007812 20.101562 58 20.082031 57.984375 20.0625 L 57.980469 20.03125 " fill-opacity="1" fill-rule="nonzero"/></g><g fill="#000000" fill-opacity="1"><g transform="translate(8.364397, 53.215598)"><g><path d="M 4.3125 -0.703125 C 4.445312 -0.523438 4.523438 -0.335938 4.546875 -0.140625 C 4.566406 0.046875 4.535156 0.226562 4.453125 0.40625 C 4.378906 0.582031 4.253906 0.734375 4.078125 0.859375 C 3.890625 0.992188 3.703125 1.070312 3.515625 1.09375 C 3.328125 1.125 3.140625 1.09375 2.953125 1 C 2.773438 0.914062 2.617188 0.78125 2.484375 0.59375 L 1.90625 -0.1875 C 1.894531 -0.207031 1.882812 -0.210938 1.875 -0.203125 L 0.625 0.71875 C 0.601562 0.726562 0.582031 0.734375 0.5625 0.734375 C 0.539062 0.734375 0.523438 0.722656 0.515625 0.703125 L 0.296875 0.40625 C 0.285156 0.382812 0.28125 0.363281 0.28125 0.34375 C 0.28125 0.320312 0.289062 0.304688 0.3125 0.296875 L 3.328125 -1.90625 C 3.335938 -1.925781 3.351562 -1.929688 3.375 -1.921875 C 3.40625 -1.921875 3.425781 -1.910156 3.4375 -1.890625 Z M 2.796875 0.296875 C 2.910156 0.460938 3.054688 0.554688 3.234375 0.578125 C 3.421875 0.609375 3.59375 0.566406 3.75 0.453125 C 3.914062 0.328125 4.007812 0.175781 4.03125 0 C 4.050781 -0.164062 4.003906 -0.332031 3.890625 -0.5 L 3.34375 -1.234375 C 3.332031 -1.253906 3.320312 -1.257812 3.3125 -1.25 L 2.265625 -0.484375 C 2.242188 -0.472656 2.238281 -0.457031 2.25 -0.4375 Z M 2.796875 0.296875 "/></g></g></g><g fill="#000000" fill-opacity="1"><g transform="translate(12.318572, 58.145123)"><g><path d="M 1.953125 1.84375 C 1.921875 1.8125 1.914062 1.773438 1.9375 1.734375 L 2.5 0.015625 C 2.488281 -0.00390625 2.484375 -0.015625 2.484375 -0.015625 L 1.90625 -0.546875 C 1.894531 -0.566406 1.890625 -0.570312 1.890625 -0.5625 L 0.765625 0.609375 C 0.753906 0.628906 0.738281 0.640625 0.71875 0.640625 C 0.695312 0.640625 0.675781 0.632812 0.65625 0.625 L 0.390625 0.359375 C 0.367188 0.347656 0.359375 0.332031 0.359375 0.3125 C 0.359375 0.289062 0.363281 0.269531 0.375 0.25 L 2.9375 -2.46875 C 2.957031 -2.476562 2.976562 -2.484375 3 -2.484375 C 3.019531 -2.484375 3.039062 -2.476562 3.0625 -2.46875 L 4.125 -1.453125 C 4.289062 -1.304688 4.398438 -1.140625 4.453125 -0.953125 C 4.515625 -0.765625 4.519531 -0.578125 4.46875 -0.390625 C 4.425781 -0.210938 4.332031 -0.046875 4.1875 0.109375 C 4.019531 0.296875 3.820312 0.40625 3.59375 0.4375 C 3.363281 0.476562 3.140625 0.441406 2.921875 0.328125 C 2.910156 0.316406 2.898438 0.320312 2.890625 0.34375 L 2.34375 2.078125 L 2.328125 2.109375 C 2.296875 2.140625 2.265625 2.132812 2.234375 2.09375 Z M 3.078125 -1.78125 C 3.066406 -1.800781 3.054688 -1.8125 3.046875 -1.8125 L 2.203125 -0.90625 C 2.191406 -0.894531 2.191406 -0.878906 2.203125 -0.859375 L 2.875 -0.234375 C 3.007812 -0.109375 3.160156 -0.046875 3.328125 -0.046875 C 3.503906 -0.0546875 3.65625 -0.128906 3.78125 -0.265625 C 3.914062 -0.398438 3.976562 -0.546875 3.96875 -0.703125 C 3.96875 -0.867188 3.894531 -1.019531 3.75 -1.15625 Z M 3.078125 -1.78125 "/></g></g></g><g fill="#000000" fill-opacity="1"><g transform="translate(17.160397, 62.283293)"><g><path d="M 0.4375 0.296875 C 0.414062 0.285156 0.40625 0.269531 0.40625 0.25 C 0.40625 0.226562 0.410156 0.207031 0.421875 0.1875 L 2.515625 -2.890625 C 2.535156 -2.910156 2.550781 -2.921875 2.5625 -2.921875 C 2.582031 -2.921875 2.601562 -2.914062 2.625 -2.90625 L 2.9375 -2.6875 C 2.957031 -2.675781 2.96875 -2.660156 2.96875 -2.640625 C 2.976562 -2.617188 2.972656 -2.597656 2.953125 -2.578125 L 0.859375 0.5 C 0.847656 0.519531 0.832031 0.53125 0.8125 0.53125 C 0.789062 0.53125 0.769531 0.523438 0.75 0.515625 Z M 0.4375 0.296875 "/></g></g></g><g fill="#000000" fill-opacity="1"><g transform="translate(20.897071, 64.661945)"><g><path d="M 0.484375 0.234375 C 0.460938 0.222656 0.445312 0.203125 0.4375 0.171875 C 0.425781 0.148438 0.425781 0.128906 0.4375 0.109375 L 2.03125 -3.25 C 2.039062 -3.269531 2.054688 -3.28125 2.078125 -3.28125 C 2.097656 -3.28125 2.117188 -3.273438 2.140625 -3.265625 L 2.46875 -3.125 C 2.5 -3.101562 2.523438 -3.078125 2.546875 -3.046875 L 2.890625 0.171875 C 2.890625 0.191406 2.890625 0.195312 2.890625 0.1875 C 2.898438 0.1875 2.910156 0.179688 2.921875 0.171875 L 4.078125 -2.28125 C 4.085938 -2.300781 4.101562 -2.3125 4.125 -2.3125 C 4.144531 -2.3125 4.171875 -2.304688 4.203125 -2.296875 L 4.53125 -2.140625 C 4.550781 -2.128906 4.5625 -2.113281 4.5625 -2.09375 C 4.570312 -2.082031 4.570312 -2.066406 4.5625 -2.046875 L 2.96875 1.3125 C 2.957031 1.332031 2.941406 1.347656 2.921875 1.359375 C 2.910156 1.367188 2.894531 1.367188 2.875 1.359375 L 2.546875 1.203125 C 2.503906 1.179688 2.484375 1.144531 2.484375 1.09375 L 2.125 -2.109375 C 2.113281 -2.128906 2.101562 -2.140625 2.09375 -2.140625 C 2.09375 -2.140625 2.09375 -2.132812 2.09375 -2.125 L 0.921875 0.34375 C 0.910156 0.363281 0.894531 0.378906 0.875 0.390625 C 0.851562 0.398438 0.832031 0.398438 0.8125 0.390625 Z M 0.484375 0.234375 "/></g></g></g><g fill="#000000" fill-opacity="1"><g transform="translate(27.121175, 67.26441)"><g><path d="M 1.640625 0.46875 C 1.367188 0.40625 1.148438 0.296875 0.984375 0.140625 C 0.816406 -0.00390625 0.695312 -0.1875 0.625 -0.40625 C 0.5625 -0.625 0.5625 -0.859375 0.625 -1.109375 L 0.984375 -2.5 C 1.054688 -2.75 1.171875 -2.945312 1.328125 -3.09375 C 1.492188 -3.25 1.6875 -3.347656 1.90625 -3.390625 C 2.125 -3.441406 2.367188 -3.4375 2.640625 -3.375 C 2.898438 -3.300781 3.113281 -3.191406 3.28125 -3.046875 C 3.445312 -2.910156 3.5625 -2.734375 3.625 -2.515625 C 3.6875 -2.304688 3.6875 -2.085938 3.625 -1.859375 C 3.613281 -1.816406 3.582031 -1.804688 3.53125 -1.828125 L 3.171875 -1.890625 L 3.15625 -1.890625 C 3.132812 -1.890625 3.117188 -1.894531 3.109375 -1.90625 C 3.097656 -1.925781 3.09375 -1.9375 3.09375 -1.9375 L 3.109375 -1.96875 C 3.160156 -2.195312 3.132812 -2.398438 3.03125 -2.578125 C 2.925781 -2.753906 2.753906 -2.875 2.515625 -2.9375 C 2.265625 -3 2.046875 -2.976562 1.859375 -2.875 C 1.679688 -2.769531 1.566406 -2.601562 1.515625 -2.375 L 1.140625 -0.953125 C 1.078125 -0.710938 1.101562 -0.503906 1.21875 -0.328125 C 1.332031 -0.160156 1.515625 -0.046875 1.765625 0.015625 C 2.003906 0.078125 2.207031 0.0625 2.375 -0.03125 C 2.550781 -0.132812 2.671875 -0.304688 2.734375 -0.546875 C 2.742188 -0.554688 2.753906 -0.5625 2.765625 -0.5625 C 2.785156 -0.570312 2.804688 -0.578125 2.828125 -0.578125 L 3.1875 -0.46875 C 3.238281 -0.4375 3.257812 -0.421875 3.25 -0.421875 L 3.25 -0.390625 C 3.1875 -0.148438 3.078125 0.0390625 2.921875 0.1875 C 2.765625 0.34375 2.578125 0.445312 2.359375 0.5 C 2.140625 0.550781 1.898438 0.539062 1.640625 0.46875 Z M 1.640625 0.46875 "/></g></g></g><g fill="#000000" fill-opacity="1"><g transform="translate(33.32403, 68.550279)"><g><path d="M 0.53125 0.046875 C 0.507812 0.046875 0.488281 0.0351562 0.46875 0.015625 C 0.457031 0.00390625 0.453125 -0.0078125 0.453125 -0.03125 L 0.828125 -3.734375 C 0.828125 -3.765625 0.832031 -3.785156 0.84375 -3.796875 C 0.863281 -3.804688 0.882812 -3.8125 0.90625 -3.8125 L 1.28125 -3.765625 C 1.300781 -3.765625 1.316406 -3.757812 1.328125 -3.75 C 1.347656 -3.738281 1.359375 -3.71875 1.359375 -3.6875 L 0.984375 0.015625 C 0.984375 0.0351562 0.972656 0.0507812 0.953125 0.0625 C 0.941406 0.0820312 0.925781 0.09375 0.90625 0.09375 Z M 0.53125 0.046875 "/></g></g></g><g fill="#000000" fill-opacity="1"><g transform="translate(37.729376, 68.825184)"><g><path d="M 1.4375 -0.078125 C 1.40625 -0.078125 1.382812 -0.0820312 1.375 -0.09375 C 1.363281 -0.113281 1.359375 -0.140625 1.359375 -0.171875 L 1.265625 -1.703125 C 1.265625 -1.703125 1.257812 -1.710938 1.25 -1.734375 L 0 -3.796875 C 0 -3.816406 0 -3.832031 0 -3.84375 C 0 -3.875 0.0195312 -3.890625 0.0625 -3.890625 L 0.46875 -3.90625 C 0.507812 -3.914062 0.539062 -3.90625 0.5625 -3.875 L 1.484375 -2.328125 C 1.492188 -2.304688 1.503906 -2.304688 1.515625 -2.328125 L 2.265625 -3.96875 C 2.285156 -4 2.320312 -4.015625 2.375 -4.015625 L 2.765625 -4.03125 C 2.816406 -4.039062 2.84375 -4.03125 2.84375 -4 L 2.828125 -3.953125 L 1.796875 -1.765625 C 1.796875 -1.742188 1.796875 -1.734375 1.796875 -1.734375 L 1.890625 -0.203125 C 1.890625 -0.171875 1.878906 -0.144531 1.859375 -0.125 C 1.847656 -0.101562 1.828125 -0.09375 1.796875 -0.09375 Z M 1.4375 -0.078125 "/></g></g></g><g fill="#000000" fill-opacity="1"><g transform="translate(43.977201, 68.218389)"><g><path d="M 2.75 -0.671875 C 2.707031 -0.660156 2.671875 -0.671875 2.640625 -0.703125 L 2.3125 -1.265625 C 2.289062 -1.273438 2.273438 -1.28125 2.265625 -1.28125 L 0.765625 -0.921875 C 0.753906 -0.910156 0.75 -0.898438 0.75 -0.890625 L 0.71875 -0.234375 C 0.71875 -0.191406 0.691406 -0.164062 0.640625 -0.15625 L 0.265625 -0.0625 C 0.203125 -0.0507812 0.171875 -0.078125 0.171875 -0.140625 L 0.453125 -4.03125 C 0.460938 -4.070312 0.488281 -4.097656 0.53125 -4.109375 L 1.03125 -4.234375 C 1.070312 -4.242188 1.109375 -4.234375 1.140625 -4.203125 L 3.1875 -0.875 C 3.195312 -0.863281 3.203125 -0.851562 3.203125 -0.84375 C 3.210938 -0.800781 3.191406 -0.773438 3.140625 -0.765625 Z M 0.78125 -1.390625 C 0.78125 -1.359375 0.789062 -1.347656 0.8125 -1.359375 L 2.046875 -1.65625 C 2.066406 -1.65625 2.070312 -1.671875 2.0625 -1.703125 L 0.953125 -3.5625 C 0.941406 -3.5625 0.929688 -3.5625 0.921875 -3.5625 C 0.921875 -3.5625 0.914062 -3.554688 0.90625 -3.546875 Z M 0.78125 -1.390625 "/></g></g></g><g fill="#000000" fill-opacity="1"><g transform="translate(50.182125, 66.392904)"><g><path d="M 0.6875 -0.28125 C 0.582031 -0.238281 0.476562 -0.234375 0.375 -0.265625 C 0.28125 -0.304688 0.207031 -0.378906 0.15625 -0.484375 C 0.125 -0.578125 0.128906 -0.675781 0.171875 -0.78125 C 0.222656 -0.882812 0.296875 -0.953125 0.390625 -0.984375 C 0.492188 -1.023438 0.59375 -1.023438 0.6875 -0.984375 C 0.789062 -0.953125 0.859375 -0.890625 0.890625 -0.796875 C 0.929688 -0.703125 0.929688 -0.601562 0.890625 -0.5 C 0.859375 -0.40625 0.789062 -0.332031 0.6875 -0.28125 Z M 0.6875 -0.28125 "/></g></g></g><g fill="#000000" fill-opacity="1"><g transform="translate(54.254253, 64.52314)"><g><path d="M 1.484375 -0.84375 C 1.253906 -0.695312 1.023438 -0.613281 0.796875 -0.59375 C 0.566406 -0.582031 0.351562 -0.628906 0.15625 -0.734375 C -0.0390625 -0.847656 -0.207031 -1.007812 -0.34375 -1.21875 L -1.09375 -2.453125 C -1.226562 -2.671875 -1.296875 -2.890625 -1.296875 -3.109375 C -1.296875 -3.328125 -1.234375 -3.53125 -1.109375 -3.71875 C -0.992188 -3.914062 -0.820312 -4.085938 -0.59375 -4.234375 C -0.363281 -4.378906 -0.140625 -4.460938 0.078125 -4.484375 C 0.304688 -4.503906 0.515625 -4.460938 0.703125 -4.359375 C 0.898438 -4.253906 1.0625 -4.097656 1.1875 -3.890625 C 1.207031 -3.859375 1.195312 -3.828125 1.15625 -3.796875 L 0.859375 -3.578125 L 0.84375 -3.5625 C 0.820312 -3.550781 0.800781 -3.546875 0.78125 -3.546875 C 0.769531 -3.554688 0.765625 -3.5625 0.765625 -3.5625 L 0.75 -3.59375 C 0.625 -3.789062 0.457031 -3.914062 0.25 -3.96875 C 0.0507812 -4.019531 -0.148438 -3.976562 -0.359375 -3.84375 C -0.578125 -3.707031 -0.707031 -3.535156 -0.75 -3.328125 C -0.800781 -3.128906 -0.765625 -2.929688 -0.640625 -2.734375 L 0.125 -1.484375 C 0.25 -1.273438 0.410156 -1.148438 0.609375 -1.109375 C 0.804688 -1.066406 1.015625 -1.113281 1.234375 -1.25 C 1.441406 -1.382812 1.570312 -1.546875 1.625 -1.734375 C 1.675781 -1.929688 1.640625 -2.132812 1.515625 -2.34375 C 1.503906 -2.351562 1.503906 -2.367188 1.515625 -2.390625 C 1.523438 -2.410156 1.539062 -2.425781 1.5625 -2.4375 L 1.875 -2.609375 C 1.925781 -2.628906 1.953125 -2.632812 1.953125 -2.625 L 1.96875 -2.609375 C 2.09375 -2.398438 2.15625 -2.1875 2.15625 -1.96875 C 2.164062 -1.75 2.113281 -1.539062 2 -1.34375 C 1.882812 -1.15625 1.710938 -0.988281 1.484375 -0.84375 Z M 1.484375 -0.84375 "/></g></g></g><g fill="#000000" fill-opacity="1"><g transform="translate(59.561364, 60.944169)"><g><path d="M 1.3125 -1.125 C 1.101562 -0.9375 0.882812 -0.8125 0.65625 -0.75 C 0.4375 -0.695312 0.21875 -0.707031 0 -0.78125 C -0.226562 -0.851562 -0.429688 -0.988281 -0.609375 -1.1875 L -1.484375 -2.15625 C -1.671875 -2.351562 -1.785156 -2.566406 -1.828125 -2.796875 C -1.867188 -3.023438 -1.847656 -3.242188 -1.765625 -3.453125 C -1.691406 -3.671875 -1.550781 -3.875 -1.34375 -4.0625 C -1.144531 -4.238281 -0.929688 -4.359375 -0.703125 -4.421875 C -0.472656 -4.484375 -0.25 -4.476562 -0.03125 -4.40625 C 0.175781 -4.332031 0.375 -4.195312 0.5625 -4 L 1.4375 -3.03125 C 1.613281 -2.832031 1.726562 -2.617188 1.78125 -2.390625 C 1.832031 -2.160156 1.816406 -1.9375 1.734375 -1.71875 C 1.648438 -1.5 1.507812 -1.300781 1.3125 -1.125 Z M 1.015625 -1.453125 C 1.191406 -1.617188 1.285156 -1.8125 1.296875 -2.03125 C 1.304688 -2.257812 1.226562 -2.46875 1.0625 -2.65625 L 0.15625 -3.65625 C -0.0195312 -3.84375 -0.21875 -3.941406 -0.4375 -3.953125 C -0.664062 -3.972656 -0.867188 -3.898438 -1.046875 -3.734375 C -1.234375 -3.566406 -1.332031 -3.367188 -1.34375 -3.140625 C -1.351562 -2.921875 -1.269531 -2.71875 -1.09375 -2.53125 L -0.1875 -1.53125 C -0.0195312 -1.34375 0.171875 -1.238281 0.390625 -1.21875 C 0.617188 -1.207031 0.828125 -1.285156 1.015625 -1.453125 Z M 1.015625 -1.453125 "/></g></g></g><g fill="#000000" fill-opacity="1"><g transform="translate(64.19999, 56.386594)"><g><path d="M 0.328125 -0.4375 C 0.304688 -0.414062 0.285156 -0.398438 0.265625 -0.390625 C 0.242188 -0.390625 0.222656 -0.394531 0.203125 -0.40625 L -2.78125 -2.640625 C -2.800781 -2.648438 -2.8125 -2.664062 -2.8125 -2.6875 C -2.8125 -2.71875 -2.800781 -2.742188 -2.78125 -2.765625 L -2.5625 -3.0625 C -2.53125 -3.09375 -2.492188 -3.109375 -2.453125 -3.109375 L -0.703125 -2.96875 C -0.671875 -2.96875 -0.664062 -2.976562 -0.6875 -3 L -1.3125 -4.640625 C -1.332031 -4.671875 -1.328125 -4.703125 -1.296875 -4.734375 L -1.078125 -5.046875 C -1.066406 -5.054688 -1.050781 -5.0625 -1.03125 -5.0625 C -1.007812 -5.070312 -0.988281 -5.070312 -0.96875 -5.0625 L 2.015625 -2.828125 C 2.035156 -2.816406 2.046875 -2.796875 2.046875 -2.765625 C 2.046875 -2.742188 2.039062 -2.726562 2.03125 -2.71875 L 1.8125 -2.40625 C 1.789062 -2.394531 1.769531 -2.382812 1.75 -2.375 C 1.738281 -2.375 1.722656 -2.378906 1.703125 -2.390625 L -0.5625 -4.078125 C -0.570312 -4.085938 -0.578125 -4.09375 -0.578125 -4.09375 C -0.585938 -4.09375 -0.59375 -4.082031 -0.59375 -4.0625 L -0.046875 -2.734375 C -0.0234375 -2.691406 -0.03125 -2.648438 -0.0625 -2.609375 L -0.171875 -2.46875 C -0.191406 -2.4375 -0.226562 -2.425781 -0.28125 -2.4375 L -1.703125 -2.5625 C -1.722656 -2.5625 -1.734375 -2.554688 -1.734375 -2.546875 C -1.742188 -2.546875 -1.742188 -2.539062 -1.734375 -2.53125 L 0.53125 -0.84375 C 0.550781 -0.832031 0.5625 -0.816406 0.5625 -0.796875 C 0.570312 -0.773438 0.566406 -0.75 0.546875 -0.71875 Z M 0.328125 -0.4375 "/></g></g></g></svg>